<svg xmlns="http://www.w3.org/2000/svg" viewBox="0 0 450 450" width="450" height="450" shape-rendering="crispEdges"><rect width="450" height="450" fill="#fff"/><g fill="#000"><rect x="20" y="20" width="10" height="10"/><rect x="30" y="20" width="10" height="10"/><rect x="40" y="20" width="10" height="10"/><rect x="50" y="20" width="10" height="10"/><rect x="60" y="20" width="10" height="10"/><rect x="70" y="20" width="10" height="10"/><rect x="80" y="20" width="10" height="10"/><rect x="120" y="20" width="10" height="10"/><rect x="130" y="20" width="10" height="10"/><rect x="220" y="20" width="10" height="10"/><rect x="250" y="20" width="10" height="10"/><rect x="300" y="20" width="10" height="10"/><rect x="310" y="20" width="10" height="10"/><rect x="340" y="20" width="10" height="10"/><rect x="360" y="20" width="10" height="10"/><rect x="370" y="20" width="10" height="10"/><rect x="380" y="20" width="10" height="10"/><rect x="390" y="20" width="10" height="10"/><rect x="400" y="20" width="10" height="10"/><rect x="410" y="20" width="10" height="10"/><rect x="420" y="20" width="10" height="10"/><rect x="20" y="30" width="10" height="10"/><rect x="80" y="30" width="10" height="10"/><rect x="110" y="30" width="10" height="10"/><rect x="160" y="30" width="10" height="10"/><rect x="170" y="30" width="10" height="10"/><rect x="200" y="30" width="10" height="10"/><rect x="240" y="30" width="10" height="10"/><rect x="290" y="30" width="10" height="10"/><rect x="360" y="30" width="10" height="10"/><rect x="420" y="30" width="10" height="10"/><rect x="20" y="40" width="10" height="10"/><rect x="40" y="40" width="10" height="10"/><rect x="50" y="40" width="10" height="10"/><rect x="60" y="40" width="10" height="10"/><rect x="80" y="40" width="10" height="10"/><rect x="100" y="40" width="10" height="10"/><rect x="110" y="40" width="10" height="10"/><rect x="120" y="40" width="10" height="10"/><rect x="140" y="40" width="10" height="10"/><rect x="160" y="40" width="10" height="10"/><rect x="170" y="40" width="10" height="10"/><rect x="180" y="40" width="10" height="10"/><rect x="220" y="40" width="10" height="10"/><rect x="250" y="40" width="10" height="10"/><rect x="260" y="40" width="10" height="10"/><rect x="280" y="40" width="10" height="10"/><rect x="300" y="40" width="10" height="10"/><rect x="340" y="40" width="10" height="10"/><rect x="360" y="40" width="10" height="10"/><rect x="380" y="40" width="10" height="10"/><rect x="390" y="40" width="10" height="10"/><rect x="400" y="40" width="10" height="10"/><rect x="420" y="40" width="10" height="10"/><rect x="20" y="50" width="10" height="10"/><rect x="40" y="50" width="10" height="10"/><rect x="50" y="50" width="10" height="10"/><rect x="60" y="50" width="10" height="10"/><rect x="80" y="50" width="10" height="10"/><rect x="100" y="50" width="10" height="10"/><rect x="110" y="50" width="10" height="10"/><rect x="150" y="50" width="10" height="10"/><rect x="160" y="50" width="10" height="10"/><rect x="170" y="50" width="10" height="10"/><rect x="200" y="50" width="10" height="10"/><rect x="220" y="50" width="10" height="10"/><rect x="230" y="50" width="10" height="10"/><rect x="240" y="50" width="10" height="10"/><rect x="260" y="50" width="10" height="10"/><rect x="290" y="50" width="10" height="10"/><rect x="300" y="50" width="10" height="10"/><rect x="310" y="50" width="10" height="10"/><rect x="340" y="50" width="10" height="10"/><rect x="360" y="50" width="10" height="10"/><rect x="380" y="50" width="10" height="10"/><rect x="390" y="50" width="10" height="10"/><rect x="400" y="50" width="10" height="10"/><rect x="420" y="50" width="10" height="10"/><rect x="20" y="60" width="10" height="10"/><rect x="40" y="60" width="10" height="10"/><rect x="50" y="60" width="10" height="10"/><rect x="60" y="60" width="10" height="10"/><rect x="80" y="60" width="10" height="10"/><rect x="100" y="60" width="10" height="10"/><rect x="110" y="60" width="10" height="10"/><rect x="120" y="60" width="10" height="10"/><rect x="150" y="60" width="10" height="10"/><rect x="180" y="60" width="10" height="10"/><rect x="190" y="60" width="10" height="10"/><rect x="210" y="60" width="10" height="10"/><rect x="220" y="60" width="10" height="10"/><rect x="230" y="60" width="10" height="10"/><rect x="250" y="60" width="10" height="10"/><rect x="270" y="60" width="10" height="10"/><rect x="280" y="60" width="10" height="10"/><rect x="290" y="60" width="10" height="10"/><rect x="300" y="60" width="10" height="10"/><rect x="320" y="60" width="10" height="10"/><rect x="340" y="60" width="10" height="10"/><rect x="360" y="60" width="10" height="10"/><rect x="380" y="60" width="10" height="10"/><rect x="390" y="60" width="10" height="10"/><rect x="400" y="60" width="10" height="10"/><rect x="420" y="60" width="10" height="10"/><rect x="20" y="70" width="10" height="10"/><rect x="80" y="70" width="10" height="10"/><rect x="100" y="70" width="10" height="10"/><rect x="120" y="70" width="10" height="10"/><rect x="150" y="70" width="10" height="10"/><rect x="180" y="70" width="10" height="10"/><rect x="190" y="70" width="10" height="10"/><rect x="230" y="70" width="10" height="10"/><rect x="240" y="70" width="10" height="10"/><rect x="260" y="70" width="10" height="10"/><rect x="270" y="70" width="10" height="10"/><rect x="280" y="70" width="10" height="10"/><rect x="290" y="70" width="10" height="10"/><rect x="310" y="70" width="10" height="10"/><rect x="320" y="70" width="10" height="10"/><rect x="340" y="70" width="10" height="10"/><rect x="360" y="70" width="10" height="10"/><rect x="420" y="70" width="10" height="10"/><rect x="20" y="80" width="10" height="10"/><rect x="30" y="80" width="10" height="10"/><rect x="40" y="80" width="10" height="10"/><rect x="50" y="80" width="10" height="10"/><rect x="60" y="80" width="10" height="10"/><rect x="70" y="80" width="10" height="10"/><rect x="80" y="80" width="10" height="10"/><rect x="100" y="80" width="10" height="10"/><rect x="120" y="80" width="10" height="10"/><rect x="140" y="80" width="10" height="10"/><rect x="160" y="80" width="10" height="10"/><rect x="180" y="80" width="10" height="10"/><rect x="200" y="80" width="10" height="10"/><rect x="220" y="80" width="10" height="10"/><rect x="240" y="80" width="10" height="10"/><rect x="260" y="80" width="10" height="10"/><rect x="280" y="80" width="10" height="10"/><rect x="300" y="80" width="10" height="10"/><rect x="320" y="80" width="10" height="10"/><rect x="340" y="80" width="10" height="10"/><rect x="360" y="80" width="10" height="10"/><rect x="370" y="80" width="10" height="10"/><rect x="380" y="80" width="10" height="10"/><rect x="390" y="80" width="10" height="10"/><rect x="400" y="80" width="10" height="10"/><rect x="410" y="80" width="10" height="10"/><rect x="420" y="80" width="10" height="10"/><rect x="100" y="90" width="10" height="10"/><rect x="120" y="90" width="10" height="10"/><rect x="150" y="90" width="10" height="10"/><rect x="180" y="90" width="10" height="10"/><rect x="220" y="90" width="10" height="10"/><rect x="230" y="90" width="10" height="10"/><rect x="240" y="90" width="10" height="10"/><rect x="250" y="90" width="10" height="10"/><rect x="260" y="90" width="10" height="10"/><rect x="320" y="90" width="10" height="10"/><rect x="330" y="90" width="10" height="10"/><rect x="20" y="100" width="10" height="10"/><rect x="40" y="100" width="10" height="10"/><rect x="50" y="100" width="10" height="10"/><rect x="60" y="100" width="10" height="10"/><rect x="70" y="100" width="10" height="10"/><rect x="80" y="100" width="10" height="10"/><rect x="130" y="100" width="10" height="10"/><rect x="140" y="100" width="10" height="10"/><rect x="150" y="100" width="10" height="10"/><rect x="170" y="100" width="10" height="10"/><rect x="180" y="100" width="10" height="10"/><rect x="240" y="100" width="10" height="10"/><rect x="270" y="100" width="10" height="10"/><rect x="280" y="100" width="10" height="10"/><rect x="290" y="100" width="10" height="10"/><rect x="310" y="100" width="10" height="10"/><rect x="320" y="100" width="10" height="10"/><rect x="360" y="100" width="10" height="10"/><rect x="370" y="100" width="10" height="10"/><rect x="380" y="100" width="10" height="10"/><rect x="390" y="100" width="10" height="10"/><rect x="400" y="100" width="10" height="10"/><rect x="70" y="110" width="10" height="10"/><rect x="90" y="110" width="10" height="10"/><rect x="110" y="110" width="10" height="10"/><rect x="120" y="110" width="10" height="10"/><rect x="130" y="110" width="10" height="10"/><rect x="140" y="110" width="10" height="10"/><rect x="170" y="110" width="10" height="10"/><rect x="200" y="110" width="10" height="10"/><rect x="210" y="110" width="10" height="10"/><rect x="230" y="110" width="10" height="10"/><rect x="250" y="110" width="10" height="10"/><rect x="330" y="110" width="10" height="10"/><rect x="340" y="110" width="10" height="10"/><rect x="360" y="110" width="10" height="10"/><rect x="370" y="110" width="10" height="10"/><rect x="380" y="110" width="10" height="10"/><rect x="400" y="110" width="10" height="10"/><rect x="410" y="110" width="10" height="10"/><rect x="420" y="110" width="10" height="10"/><rect x="30" y="120" width="10" height="10"/><rect x="40" y="120" width="10" height="10"/><rect x="50" y="120" width="10" height="10"/><rect x="80" y="120" width="10" height="10"/><rect x="110" y="120" width="10" height="10"/><rect x="120" y="120" width="10" height="10"/><rect x="140" y="120" width="10" height="10"/><rect x="150" y="120" width="10" height="10"/><rect x="170" y="120" width="10" height="10"/><rect x="190" y="120" width="10" height="10"/><rect x="200" y="120" width="10" height="10"/><rect x="220" y="120" width="10" height="10"/><rect x="260" y="120" width="10" height="10"/><rect x="270" y="120" width="10" height="10"/><rect x="280" y="120" width="10" height="10"/><rect x="290" y="120" width="10" height="10"/><rect x="300" y="120" width="10" height="10"/><rect x="310" y="120" width="10" height="10"/><rect x="320" y="120" width="10" height="10"/><rect x="340" y="120" width="10" height="10"/><rect x="350" y="120" width="10" height="10"/><rect x="30" y="130" width="10" height="10"/><rect x="50" y="130" width="10" height="10"/><rect x="60" y="130" width="10" height="10"/><rect x="70" y="130" width="10" height="10"/><rect x="90" y="130" width="10" height="10"/><rect x="100" y="130" width="10" height="10"/><rect x="110" y="130" width="10" height="10"/><rect x="130" y="130" width="10" height="10"/><rect x="150" y="130" width="10" height="10"/><rect x="180" y="130" width="10" height="10"/><rect x="200" y="130" width="10" height="10"/><rect x="210" y="130" width="10" height="10"/><rect x="220" y="130" width="10" height="10"/><rect x="230" y="130" width="10" height="10"/><rect x="260" y="130" width="10" height="10"/><rect x="300" y="130" width="10" height="10"/><rect x="320" y="130" width="10" height="10"/><rect x="330" y="130" width="10" height="10"/><rect x="340" y="130" width="10" height="10"/><rect x="360" y="130" width="10" height="10"/><rect x="370" y="130" width="10" height="10"/><rect x="390" y="130" width="10" height="10"/><rect x="410" y="130" width="10" height="10"/><rect x="420" y="130" width="10" height="10"/><rect x="20" y="140" width="10" height="10"/><rect x="30" y="140" width="10" height="10"/><rect x="40" y="140" width="10" height="10"/><rect x="80" y="140" width="10" height="10"/><rect x="100" y="140" width="10" height="10"/><rect x="110" y="140" width="10" height="10"/><rect x="120" y="140" width="10" height="10"/><rect x="130" y="140" width="10" height="10"/><rect x="150" y="140" width="10" height="10"/><rect x="190" y="140" width="10" height="10"/><rect x="210" y="140" width="10" height="10"/><rect x="240" y="140" width="10" height="10"/><rect x="250" y="140" width="10" height="10"/><rect x="280" y="140" width="10" height="10"/><rect x="290" y="140" width="10" height="10"/><rect x="330" y="140" width="10" height="10"/><rect x="350" y="140" width="10" height="10"/><rect x="370" y="140" width="10" height="10"/><rect x="380" y="140" width="10" height="10"/><rect x="390" y="140" width="10" height="10"/><rect x="400" y="140" width="10" height="10"/><rect x="410" y="140" width="10" height="10"/><rect x="20" y="150" width="10" height="10"/><rect x="50" y="150" width="10" height="10"/><rect x="60" y="150" width="10" height="10"/><rect x="70" y="150" width="10" height="10"/><rect x="90" y="150" width="10" height="10"/><rect x="100" y="150" width="10" height="10"/><rect x="120" y="150" width="10" height="10"/><rect x="130" y="150" width="10" height="10"/><rect x="140" y="150" width="10" height="10"/><rect x="150" y="150" width="10" height="10"/><rect x="180" y="150" width="10" height="10"/><rect x="190" y="150" width="10" height="10"/><rect x="200" y="150" width="10" height="10"/><rect x="220" y="150" width="10" height="10"/><rect x="260" y="150" width="10" height="10"/><rect x="270" y="150" width="10" height="10"/><rect x="280" y="150" width="10" height="10"/><rect x="290" y="150" width="10" height="10"/><rect x="300" y="150" width="10" height="10"/><rect x="310" y="150" width="10" height="10"/><rect x="320" y="150" width="10" height="10"/><rect x="330" y="150" width="10" height="10"/><rect x="340" y="150" width="10" height="10"/><rect x="350" y="150" width="10" height="10"/><rect x="360" y="150" width="10" height="10"/><rect x="370" y="150" width="10" height="10"/><rect x="380" y="150" width="10" height="10"/><rect x="20" y="160" width="10" height="10"/><rect x="50" y="160" width="10" height="10"/><rect x="60" y="160" width="10" height="10"/><rect x="80" y="160" width="10" height="10"/><rect x="90" y="160" width="10" height="10"/><rect x="110" y="160" width="10" height="10"/><rect x="150" y="160" width="10" height="10"/><rect x="190" y="160" width="10" height="10"/><rect x="210" y="160" width="10" height="10"/><rect x="240" y="160" width="10" height="10"/><rect x="310" y="160" width="10" height="10"/><rect x="350" y="160" width="10" height="10"/><rect x="370" y="160" width="10" height="10"/><rect x="400" y="160" width="10" height="10"/><rect x="20" y="170" width="10" height="10"/><rect x="40" y="170" width="10" height="10"/><rect x="50" y="170" width="10" height="10"/><rect x="60" y="170" width="10" height="10"/><rect x="110" y="170" width="10" height="10"/><rect x="120" y="170" width="10" height="10"/><rect x="160" y="170" width="10" height="10"/><rect x="210" y="170" width="10" height="10"/><rect x="220" y="170" width="10" height="10"/><rect x="230" y="170" width="10" height="10"/><rect x="240" y="170" width="10" height="10"/><rect x="260" y="170" width="10" height="10"/><rect x="280" y="170" width="10" height="10"/><rect x="300" y="170" width="10" height="10"/><rect x="340" y="170" width="10" height="10"/><rect x="360" y="170" width="10" height="10"/><rect x="370" y="170" width="10" height="10"/><rect x="390" y="170" width="10" height="10"/><rect x="20" y="180" width="10" height="10"/><rect x="30" y="180" width="10" height="10"/><rect x="50" y="180" width="10" height="10"/><rect x="70" y="180" width="10" height="10"/><rect x="80" y="180" width="10" height="10"/><rect x="100" y="180" width="10" height="10"/><rect x="110" y="180" width="10" height="10"/><rect x="120" y="180" width="10" height="10"/><rect x="170" y="180" width="10" height="10"/><rect x="190" y="180" width="10" height="10"/><rect x="210" y="180" width="10" height="10"/><rect x="240" y="180" width="10" height="10"/><rect x="260" y="180" width="10" height="10"/><rect x="270" y="180" width="10" height="10"/><rect x="280" y="180" width="10" height="10"/><rect x="310" y="180" width="10" height="10"/><rect x="340" y="180" width="10" height="10"/><rect x="350" y="180" width="10" height="10"/><rect x="370" y="180" width="10" height="10"/><rect x="40" y="190" width="10" height="10"/><rect x="50" y="190" width="10" height="10"/><rect x="70" y="190" width="10" height="10"/><rect x="130" y="190" width="10" height="10"/><rect x="140" y="190" width="10" height="10"/><rect x="160" y="190" width="10" height="10"/><rect x="170" y="190" width="10" height="10"/><rect x="180" y="190" width="10" height="10"/><rect x="190" y="190" width="10" height="10"/><rect x="210" y="190" width="10" height="10"/><rect x="220" y="190" width="10" height="10"/><rect x="230" y="190" width="10" height="10"/><rect x="250" y="190" width="10" height="10"/><rect x="270" y="190" width="10" height="10"/><rect x="300" y="190" width="10" height="10"/><rect x="310" y="190" width="10" height="10"/><rect x="320" y="190" width="10" height="10"/><rect x="330" y="190" width="10" height="10"/><rect x="340" y="190" width="10" height="10"/><rect x="360" y="190" width="10" height="10"/><rect x="370" y="190" width="10" height="10"/><rect x="380" y="190" width="10" height="10"/><rect x="390" y="190" width="10" height="10"/><rect x="400" y="190" width="10" height="10"/><rect x="20" y="200" width="10" height="10"/><rect x="30" y="200" width="10" height="10"/><rect x="40" y="200" width="10" height="10"/><rect x="50" y="200" width="10" height="10"/><rect x="60" y="200" width="10" height="10"/><rect x="70" y="200" width="10" height="10"/><rect x="80" y="200" width="10" height="10"/><rect x="110" y="200" width="10" height="10"/><rect x="120" y="200" width="10" height="10"/><rect x="150" y="200" width="10" height="10"/><rect x="160" y="200" width="10" height="10"/><rect x="190" y="200" width="10" height="10"/><rect x="220" y="200" width="10" height="10"/><rect x="230" y="200" width="10" height="10"/><rect x="270" y="200" width="10" height="10"/><rect x="280" y="200" width="10" height="10"/><rect x="290" y="200" width="10" height="10"/><rect x="300" y="200" width="10" height="10"/><rect x="380" y="200" width="10" height="10"/><rect x="390" y="200" width="10" height="10"/><rect x="400" y="200" width="10" height="10"/><rect x="40" y="210" width="10" height="10"/><rect x="60" y="210" width="10" height="10"/><rect x="70" y="210" width="10" height="10"/><rect x="110" y="210" width="10" height="10"/><rect x="140" y="210" width="10" height="10"/><rect x="160" y="210" width="10" height="10"/><rect x="180" y="210" width="10" height="10"/><rect x="190" y="210" width="10" height="10"/><rect x="200" y="210" width="10" height="10"/><rect x="220" y="210" width="10" height="10"/><rect x="230" y="210" width="10" height="10"/><rect x="240" y="210" width="10" height="10"/><rect x="270" y="210" width="10" height="10"/><rect x="300" y="210" width="10" height="10"/><rect x="320" y="210" width="10" height="10"/><rect x="330" y="210" width="10" height="10"/><rect x="340" y="210" width="10" height="10"/><rect x="380" y="210" width="10" height="10"/><rect x="390" y="210" width="10" height="10"/><rect x="20" y="220" width="10" height="10"/><rect x="40" y="220" width="10" height="10"/><rect x="50" y="220" width="10" height="10"/><rect x="80" y="220" width="10" height="10"/><rect x="90" y="220" width="10" height="10"/><rect x="100" y="220" width="10" height="10"/><rect x="230" y="220" width="10" height="10"/><rect x="250" y="220" width="10" height="10"/><rect x="280" y="220" width="10" height="10"/><rect x="300" y="220" width="10" height="10"/><rect x="320" y="220" width="10" height="10"/><rect x="330" y="220" width="10" height="10"/><rect x="370" y="220" width="10" height="10"/><rect x="400" y="220" width="10" height="10"/><rect x="410" y="220" width="10" height="10"/><rect x="420" y="220" width="10" height="10"/><rect x="30" y="230" width="10" height="10"/><rect x="50" y="230" width="10" height="10"/><rect x="90" y="230" width="10" height="10"/><rect x="140" y="230" width="10" height="10"/><rect x="150" y="230" width="10" height="10"/><rect x="170" y="230" width="10" height="10"/><rect x="180" y="230" width="10" height="10"/><rect x="200" y="230" width="10" height="10"/><rect x="210" y="230" width="10" height="10"/><rect x="220" y="230" width="10" height="10"/><rect x="230" y="230" width="10" height="10"/><rect x="240" y="230" width="10" height="10"/><rect x="250" y="230" width="10" height="10"/><rect x="290" y="230" width="10" height="10"/><rect x="300" y="230" width="10" height="10"/><rect x="320" y="230" width="10" height="10"/><rect x="340" y="230" width="10" height="10"/><rect x="350" y="230" width="10" height="10"/><rect x="370" y="230" width="10" height="10"/><rect x="380" y="230" width="10" height="10"/><rect x="390" y="230" width="10" height="10"/><rect x="400" y="230" width="10" height="10"/><rect x="410" y="230" width="10" height="10"/><rect x="420" y="230" width="10" height="10"/><rect x="30" y="240" width="10" height="10"/><rect x="40" y="240" width="10" height="10"/><rect x="60" y="240" width="10" height="10"/><rect x="80" y="240" width="10" height="10"/><rect x="90" y="240" width="10" height="10"/><rect x="100" y="240" width="10" height="10"/><rect x="110" y="240" width="10" height="10"/><rect x="120" y="240" width="10" height="10"/><rect x="130" y="240" width="10" height="10"/><rect x="140" y="240" width="10" height="10"/><rect x="150" y="240" width="10" height="10"/><rect x="170" y="240" width="10" height="10"/><rect x="190" y="240" width="10" height="10"/><rect x="220" y="240" width="10" height="10"/><rect x="270" y="240" width="10" height="10"/><rect x="280" y="240" width="10" height="10"/><rect x="290" y="240" width="10" height="10"/><rect x="310" y="240" width="10" height="10"/><rect x="320" y="240" width="10" height="10"/><rect x="340" y="240" width="10" height="10"/><rect x="380" y="240" width="10" height="10"/><rect x="30" y="250" width="10" height="10"/><rect x="60" y="250" width="10" height="10"/><rect x="110" y="250" width="10" height="10"/><rect x="120" y="250" width="10" height="10"/><rect x="130" y="250" width="10" height="10"/><rect x="150" y="250" width="10" height="10"/><rect x="200" y="250" width="10" height="10"/><rect x="230" y="250" width="10" height="10"/><rect x="260" y="250" width="10" height="10"/><rect x="280" y="250" width="10" height="10"/><rect x="330" y="250" width="10" height="10"/><rect x="340" y="250" width="10" height="10"/><rect x="350" y="250" width="10" height="10"/><rect x="370" y="250" width="10" height="10"/><rect x="380" y="250" width="10" height="10"/><rect x="390" y="250" width="10" height="10"/><rect x="410" y="250" width="10" height="10"/><rect x="420" y="250" width="10" height="10"/><rect x="30" y="260" width="10" height="10"/><rect x="80" y="260" width="10" height="10"/><rect x="90" y="260" width="10" height="10"/><rect x="100" y="260" width="10" height="10"/><rect x="110" y="260" width="10" height="10"/><rect x="120" y="260" width="10" height="10"/><rect x="130" y="260" width="10" height="10"/><rect x="140" y="260" width="10" height="10"/><rect x="160" y="260" width="10" height="10"/><rect x="210" y="260" width="10" height="10"/><rect x="260" y="260" width="10" height="10"/><rect x="270" y="260" width="10" height="10"/><rect x="280" y="260" width="10" height="10"/><rect x="290" y="260" width="10" height="10"/><rect x="300" y="260" width="10" height="10"/><rect x="310" y="260" width="10" height="10"/><rect x="330" y="260" width="10" height="10"/><rect x="400" y="260" width="10" height="10"/><rect x="410" y="260" width="10" height="10"/><rect x="420" y="260" width="10" height="10"/><rect x="20" y="270" width="10" height="10"/><rect x="40" y="270" width="10" height="10"/><rect x="50" y="270" width="10" height="10"/><rect x="70" y="270" width="10" height="10"/><rect x="100" y="270" width="10" height="10"/><rect x="120" y="270" width="10" height="10"/><rect x="170" y="270" width="10" height="10"/><rect x="180" y="270" width="10" height="10"/><rect x="200" y="270" width="10" height="10"/><rect x="210" y="270" width="10" height="10"/><rect x="220" y="270" width="10" height="10"/><rect x="250" y="270" width="10" height="10"/><rect x="270" y="270" width="10" height="10"/><rect x="320" y="270" width="10" height="10"/><rect x="330" y="270" width="10" height="10"/><rect x="350" y="270" width="10" height="10"/><rect x="360" y="270" width="10" height="10"/><rect x="370" y="270" width="10" height="10"/><rect x="380" y="270" width="10" height="10"/><rect x="390" y="270" width="10" height="10"/><rect x="410" y="270" width="10" height="10"/><rect x="420" y="270" width="10" height="10"/><rect x="20" y="280" width="10" height="10"/><rect x="40" y="280" width="10" height="10"/><rect x="50" y="280" width="10" height="10"/><rect x="70" y="280" width="10" height="10"/><rect x="80" y="280" width="10" height="10"/><rect x="120" y="280" width="10" height="10"/><rect x="130" y="280" width="10" height="10"/><rect x="140" y="280" width="10" height="10"/><rect x="180" y="280" width="10" height="10"/><rect x="200" y="280" width="10" height="10"/><rect x="220" y="280" width="10" height="10"/><rect x="240" y="280" width="10" height="10"/><rect x="260" y="280" width="10" height="10"/><rect x="270" y="280" width="10" height="10"/><rect x="280" y="280" width="10" height="10"/><rect x="290" y="280" width="10" height="10"/><rect x="340" y="280" width="10" height="10"/><rect x="360" y="280" width="10" height="10"/><rect x="370" y="280" width="10" height="10"/><rect x="90" y="290" width="10" height="10"/><rect x="150" y="290" width="10" height="10"/><rect x="160" y="290" width="10" height="10"/><rect x="230" y="290" width="10" height="10"/><rect x="240" y="290" width="10" height="10"/><rect x="280" y="290" width="10" height="10"/><rect x="290" y="290" width="10" height="10"/><rect x="300" y="290" width="10" height="10"/><rect x="320" y="290" width="10" height="10"/><rect x="330" y="290" width="10" height="10"/><rect x="340" y="290" width="10" height="10"/><rect x="350" y="290" width="10" height="10"/><rect x="360" y="290" width="10" height="10"/><rect x="370" y="290" width="10" height="10"/><rect x="390" y="290" width="10" height="10"/><rect x="30" y="300" width="10" height="10"/><rect x="50" y="300" width="10" height="10"/><rect x="80" y="300" width="10" height="10"/><rect x="90" y="300" width="10" height="10"/><rect x="100" y="300" width="10" height="10"/><rect x="120" y="300" width="10" height="10"/><rect x="130" y="300" width="10" height="10"/><rect x="140" y="300" width="10" height="10"/><rect x="150" y="300" width="10" height="10"/><rect x="160" y="300" width="10" height="10"/><rect x="180" y="300" width="10" height="10"/><rect x="190" y="300" width="10" height="10"/><rect x="210" y="300" width="10" height="10"/><rect x="220" y="300" width="10" height="10"/><rect x="240" y="300" width="10" height="10"/><rect x="260" y="300" width="10" height="10"/><rect x="280" y="300" width="10" height="10"/><rect x="290" y="300" width="10" height="10"/><rect x="300" y="300" width="10" height="10"/><rect x="330" y="300" width="10" height="10"/><rect x="340" y="300" width="10" height="10"/><rect x="390" y="300" width="10" height="10"/><rect x="400" y="300" width="10" height="10"/><rect x="410" y="300" width="10" height="10"/><rect x="20" y="310" width="10" height="10"/><rect x="30" y="310" width="10" height="10"/><rect x="60" y="310" width="10" height="10"/><rect x="70" y="310" width="10" height="10"/><rect x="90" y="310" width="10" height="10"/><rect x="100" y="310" width="10" height="10"/><rect x="120" y="310" width="10" height="10"/><rect x="140" y="310" width="10" height="10"/><rect x="230" y="310" width="10" height="10"/><rect x="270" y="310" width="10" height="10"/><rect x="290" y="310" width="10" height="10"/><rect x="310" y="310" width="10" height="10"/><rect x="330" y="310" width="10" height="10"/><rect x="340" y="310" width="10" height="10"/><rect x="350" y="310" width="10" height="10"/><rect x="360" y="310" width="10" height="10"/><rect x="380" y="310" width="10" height="10"/><rect x="390" y="310" width="10" height="10"/><rect x="400" y="310" width="10" height="10"/><rect x="410" y="310" width="10" height="10"/><rect x="420" y="310" width="10" height="10"/><rect x="20" y="320" width="10" height="10"/><rect x="50" y="320" width="10" height="10"/><rect x="70" y="320" width="10" height="10"/><rect x="80" y="320" width="10" height="10"/><rect x="120" y="320" width="10" height="10"/><rect x="150" y="320" width="10" height="10"/><rect x="170" y="320" width="10" height="10"/><rect x="220" y="320" width="10" height="10"/><rect x="230" y="320" width="10" height="10"/><rect x="250" y="320" width="10" height="10"/><rect x="260" y="320" width="10" height="10"/><rect x="280" y="320" width="10" height="10"/><rect x="290" y="320" width="10" height="10"/><rect x="300" y="320" width="10" height="10"/><rect x="310" y="320" width="10" height="10"/><rect x="350" y="320" width="10" height="10"/><rect x="360" y="320" width="10" height="10"/><rect x="370" y="320" width="10" height="10"/><rect x="380" y="320" width="10" height="10"/><rect x="390" y="320" width="10" height="10"/><rect x="20" y="330" width="10" height="10"/><rect x="40" y="330" width="10" height="10"/><rect x="60" y="330" width="10" height="10"/><rect x="70" y="330" width="10" height="10"/><rect x="100" y="330" width="10" height="10"/><rect x="110" y="330" width="10" height="10"/><rect x="120" y="330" width="10" height="10"/><rect x="140" y="330" width="10" height="10"/><rect x="180" y="330" width="10" height="10"/><rect x="200" y="330" width="10" height="10"/><rect x="230" y="330" width="10" height="10"/><rect x="240" y="330" width="10" height="10"/><rect x="250" y="330" width="10" height="10"/><rect x="290" y="330" width="10" height="10"/><rect x="350" y="330" width="10" height="10"/><rect x="360" y="330" width="10" height="10"/><rect x="390" y="330" width="10" height="10"/><rect x="410" y="330" width="10" height="10"/><rect x="20" y="340" width="10" height="10"/><rect x="40" y="340" width="10" height="10"/><rect x="50" y="340" width="10" height="10"/><rect x="60" y="340" width="10" height="10"/><rect x="80" y="340" width="10" height="10"/><rect x="90" y="340" width="10" height="10"/><rect x="110" y="340" width="10" height="10"/><rect x="120" y="340" width="10" height="10"/><rect x="130" y="340" width="10" height="10"/><rect x="150" y="340" width="10" height="10"/><rect x="160" y="340" width="10" height="10"/><rect x="190" y="340" width="10" height="10"/><rect x="240" y="340" width="10" height="10"/><rect x="250" y="340" width="10" height="10"/><rect x="260" y="340" width="10" height="10"/><rect x="270" y="340" width="10" height="10"/><rect x="280" y="340" width="10" height="10"/><rect x="290" y="340" width="10" height="10"/><rect x="300" y="340" width="10" height="10"/><rect x="310" y="340" width="10" height="10"/><rect x="330" y="340" width="10" height="10"/><rect x="340" y="340" width="10" height="10"/><rect x="350" y="340" width="10" height="10"/><rect x="360" y="340" width="10" height="10"/><rect x="370" y="340" width="10" height="10"/><rect x="380" y="340" width="10" height="10"/><rect x="100" y="350" width="10" height="10"/><rect x="120" y="350" width="10" height="10"/><rect x="130" y="350" width="10" height="10"/><rect x="160" y="350" width="10" height="10"/><rect x="180" y="350" width="10" height="10"/><rect x="200" y="350" width="10" height="10"/><rect x="210" y="350" width="10" height="10"/><rect x="220" y="350" width="10" height="10"/><rect x="240" y="350" width="10" height="10"/><rect x="250" y="350" width="10" height="10"/><rect x="260" y="350" width="10" height="10"/><rect x="290" y="350" width="10" height="10"/><rect x="300" y="350" width="10" height="10"/><rect x="310" y="350" width="10" height="10"/><rect x="320" y="350" width="10" height="10"/><rect x="340" y="350" width="10" height="10"/><rect x="380" y="350" width="10" height="10"/><rect x="410" y="350" width="10" height="10"/><rect x="20" y="360" width="10" height="10"/><rect x="30" y="360" width="10" height="10"/><rect x="40" y="360" width="10" height="10"/><rect x="50" y="360" width="10" height="10"/><rect x="60" y="360" width="10" height="10"/><rect x="70" y="360" width="10" height="10"/><rect x="80" y="360" width="10" height="10"/><rect x="110" y="360" width="10" height="10"/><rect x="120" y="360" width="10" height="10"/><rect x="130" y="360" width="10" height="10"/><rect x="150" y="360" width="10" height="10"/><rect x="170" y="360" width="10" height="10"/><rect x="180" y="360" width="10" height="10"/><rect x="200" y="360" width="10" height="10"/><rect x="240" y="360" width="10" height="10"/><rect x="290" y="360" width="10" height="10"/><rect x="310" y="360" width="10" height="10"/><rect x="330" y="360" width="10" height="10"/><rect x="340" y="360" width="10" height="10"/><rect x="360" y="360" width="10" height="10"/><rect x="380" y="360" width="10" height="10"/><rect x="390" y="360" width="10" height="10"/><rect x="400" y="360" width="10" height="10"/><rect x="20" y="370" width="10" height="10"/><rect x="80" y="370" width="10" height="10"/><rect x="100" y="370" width="10" height="10"/><rect x="110" y="370" width="10" height="10"/><rect x="120" y="370" width="10" height="10"/><rect x="140" y="370" width="10" height="10"/><rect x="180" y="370" width="10" height="10"/><rect x="220" y="370" width="10" height="10"/><rect x="280" y="370" width="10" height="10"/><rect x="300" y="370" width="10" height="10"/><rect x="310" y="370" width="10" height="10"/><rect x="320" y="370" width="10" height="10"/><rect x="330" y="370" width="10" height="10"/><rect x="340" y="370" width="10" height="10"/><rect x="380" y="370" width="10" height="10"/><rect x="390" y="370" width="10" height="10"/><rect x="410" y="370" width="10" height="10"/><rect x="20" y="380" width="10" height="10"/><rect x="40" y="380" width="10" height="10"/><rect x="50" y="380" width="10" height="10"/><rect x="60" y="380" width="10" height="10"/><rect x="80" y="380" width="10" height="10"/><rect x="100" y="380" width="10" height="10"/><rect x="120" y="380" width="10" height="10"/><rect x="170" y="380" width="10" height="10"/><rect x="180" y="380" width="10" height="10"/><rect x="200" y="380" width="10" height="10"/><rect x="220" y="380" width="10" height="10"/><rect x="230" y="380" width="10" height="10"/><rect x="240" y="380" width="10" height="10"/><rect x="250" y="380" width="10" height="10"/><rect x="260" y="380" width="10" height="10"/><rect x="290" y="380" width="10" height="10"/><rect x="340" y="380" width="10" height="10"/><rect x="350" y="380" width="10" height="10"/><rect x="360" y="380" width="10" height="10"/><rect x="370" y="380" width="10" height="10"/><rect x="380" y="380" width="10" height="10"/><rect x="400" y="380" width="10" height="10"/><rect x="410" y="380" width="10" height="10"/><rect x="420" y="380" width="10" height="10"/><rect x="20" y="390" width="10" height="10"/><rect x="40" y="390" width="10" height="10"/><rect x="50" y="390" width="10" height="10"/><rect x="60" y="390" width="10" height="10"/><rect x="80" y="390" width="10" height="10"/><rect x="100" y="390" width="10" height="10"/><rect x="110" y="390" width="10" height="10"/><rect x="120" y="390" width="10" height="10"/><rect x="160" y="390" width="10" height="10"/><rect x="210" y="390" width="10" height="10"/><rect x="220" y="390" width="10" height="10"/><rect x="250" y="390" width="10" height="10"/><rect x="270" y="390" width="10" height="10"/><rect x="280" y="390" width="10" height="10"/><rect x="290" y="390" width="10" height="10"/><rect x="300" y="390" width="10" height="10"/><rect x="310" y="390" width="10" height="10"/><rect x="320" y="390" width="10" height="10"/><rect x="330" y="390" width="10" height="10"/><rect x="350" y="390" width="10" height="10"/><rect x="370" y="390" width="10" height="10"/><rect x="390" y="390" width="10" height="10"/><rect x="20" y="400" width="10" height="10"/><rect x="40" y="400" width="10" height="10"/><rect x="50" y="400" width="10" height="10"/><rect x="60" y="400" width="10" height="10"/><rect x="80" y="400" width="10" height="10"/><rect x="100" y="400" width="10" height="10"/><rect x="120" y="400" width="10" height="10"/><rect x="150" y="400" width="10" height="10"/><rect x="160" y="400" width="10" height="10"/><rect x="170" y="400" width="10" height="10"/><rect x="240" y="400" width="10" height="10"/><rect x="290" y="400" width="10" height="10"/><rect x="300" y="400" width="10" height="10"/><rect x="310" y="400" width="10" height="10"/><rect x="330" y="400" width="10" height="10"/><rect x="350" y="400" width="10" height="10"/><rect x="360" y="400" width="10" height="10"/><rect x="370" y="400" width="10" height="10"/><rect x="380" y="400" width="10" height="10"/><rect x="390" y="400" width="10" height="10"/><rect x="20" y="410" width="10" height="10"/><rect x="80" y="410" width="10" height="10"/><rect x="120" y="410" width="10" height="10"/><rect x="150" y="410" width="10" height="10"/><rect x="170" y="410" width="10" height="10"/><rect x="200" y="410" width="10" height="10"/><rect x="230" y="410" width="10" height="10"/><rect x="250" y="410" width="10" height="10"/><rect x="260" y="410" width="10" height="10"/><rect x="280" y="410" width="10" height="10"/><rect x="300" y="410" width="10" height="10"/><rect x="320" y="410" width="10" height="10"/><rect x="330" y="410" width="10" height="10"/><rect x="350" y="410" width="10" height="10"/><rect x="360" y="410" width="10" height="10"/><rect x="380" y="410" width="10" height="10"/><rect x="390" y="410" width="10" height="10"/><rect x="410" y="410" width="10" height="10"/><rect x="20" y="420" width="10" height="10"/><rect x="30" y="420" width="10" height="10"/><rect x="40" y="420" width="10" height="10"/><rect x="50" y="420" width="10" height="10"/><rect x="60" y="420" width="10" height="10"/><rect x="70" y="420" width="10" height="10"/><rect x="80" y="420" width="10" height="10"/><rect x="100" y="420" width="10" height="10"/><rect x="150" y="420" width="10" height="10"/><rect x="180" y="420" width="10" height="10"/><rect x="190" y="420" width="10" height="10"/><rect x="210" y="420" width="10" height="10"/><rect x="240" y="420" width="10" height="10"/><rect x="270" y="420" width="10" height="10"/><rect x="280" y="420" width="10" height="10"/><rect x="300" y="420" width="10" height="10"/><rect x="310" y="420" width="10" height="10"/><rect x="330" y="420" width="10" height="10"/><rect x="360" y="420" width="10" height="10"/><rect x="370" y="420" width="10" height="10"/><rect x="380" y="420" width="10" height="10"/><rect x="390" y="420" width="10" height="10"/><rect x="400" y="420" width="10" height="10"/></g></svg>