<?xml version="1.0" encoding="UTF-8"?>
<svg xmlns="http://www.w3.org/2000/svg" viewBox="0 0 45 45" width="45" height="45">
  <rect width="45" height="45" fill="#ffffff"/>
  <path fill="#000000" d="M4,4h1v1h-1zM5,4h1v1h-1zM6,4h1v1h-1zM7,4h1v1h-1zM8,4h1v1h-1zM9,4h1v1h-1zM10,4h1v1h-1zM14,4h1v1h-1zM16,4h1v1h-1zM17,4h1v1h-1zM20,4h1v1h-1zM21,4h1v1h-1zM22,4h1v1h-1zM23,4h1v1h-1zM27,4h1v1h-1zM29,4h1v1h-1zM30,4h1v1h-1zM31,4h1v1h-1zM34,4h1v1h-1zM35,4h1v1h-1zM36,4h1v1h-1zM37,4h1v1h-1zM38,4h1v1h-1zM39,4h1v1h-1zM40,4h1v1h-1zM4,5h1v1h-1zM10,5h1v1h-1zM15,5h1v1h-1zM16,5h1v1h-1zM17,5h1v1h-1zM19,5h1v1h-1zM20,5h1v1h-1zM22,5h1v1h-1zM24,5h1v1h-1zM27,5h1v1h-1zM28,5h1v1h-1zM31,5h1v1h-1zM32,5h1v1h-1zM34,5h1v1h-1zM40,5h1v1h-1zM4,6h1v1h-1zM6,6h1v1h-1zM7,6h1v1h-1zM8,6h1v1h-1zM10,6h1v1h-1zM13,6h1v1h-1zM14,6h1v1h-1zM16,6h1v1h-1zM17,6h1v1h-1zM18,6h1v1h-1zM20,6h1v1h-1zM21,6h1v1h-1zM24,6h1v1h-1zM26,6h1v1h-1zM27,6h1v1h-1zM28,6h1v1h-1zM30,6h1v1h-1zM34,6h1v1h-1zM36,6h1v1h-1zM37,6h1v1h-1zM38,6h1v1h-1zM40,6h1v1h-1zM4,7h1v1h-1zM6,7h1v1h-1zM7,7h1v1h-1zM8,7h1v1h-1zM10,7h1v1h-1zM13,7h1v1h-1zM15,7h1v1h-1zM17,7h1v1h-1zM19,7h1v1h-1zM21,7h1v1h-1zM22,7h1v1h-1zM24,7h1v1h-1zM25,7h1v1h-1zM26,7h1v1h-1zM30,7h1v1h-1zM31,7h1v1h-1zM34,7h1v1h-1zM36,7h1v1h-1zM37,7h1v1h-1zM38,7h1v1h-1zM40,7h1v1h-1zM4,8h1v1h-1zM6,8h1v1h-1zM7,8h1v1h-1zM8,8h1v1h-1zM10,8h1v1h-1zM13,8h1v1h-1zM15,8h1v1h-1zM18,8h1v1h-1zM19,8h1v1h-1zM21,8h1v1h-1zM22,8h1v1h-1zM23,8h1v1h-1zM25,8h1v1h-1zM31,8h1v1h-1zM32,8h1v1h-1zM34,8h1v1h-1zM36,8h1v1h-1zM37,8h1v1h-1zM38,8h1v1h-1zM40,8h1v1h-1zM4,9h1v1h-1zM10,9h1v1h-1zM12,9h1v1h-1zM14,9h1v1h-1zM16,9h1v1h-1zM18,9h1v1h-1zM19,9h1v1h-1zM20,9h1v1h-1zM22,9h1v1h-1zM23,9h1v1h-1zM28,9h1v1h-1zM31,9h1v1h-1zM32,9h1v1h-1zM34,9h1v1h-1zM40,9h1v1h-1zM4,10h1v1h-1zM5,10h1v1h-1zM6,10h1v1h-1zM7,10h1v1h-1zM8,10h1v1h-1zM9,10h1v1h-1zM10,10h1v1h-1zM12,10h1v1h-1zM14,10h1v1h-1zM16,10h1v1h-1zM18,10h1v1h-1zM20,10h1v1h-1zM22,10h1v1h-1zM24,10h1v1h-1zM26,10h1v1h-1zM28,10h1v1h-1zM30,10h1v1h-1zM32,10h1v1h-1zM34,10h1v1h-1zM35,10h1v1h-1zM36,10h1v1h-1zM37,10h1v1h-1zM38,10h1v1h-1zM39,10h1v1h-1zM40,10h1v1h-1zM13,11h1v1h-1zM14,11h1v1h-1zM15,11h1v1h-1zM16,11h1v1h-1zM18,11h1v1h-1zM20,11h1v1h-1zM21,11h1v1h-1zM23,11h1v1h-1zM25,11h1v1h-1zM26,11h1v1h-1zM28,11h1v1h-1zM30,11h1v1h-1zM4,12h1v1h-1zM7,12h1v1h-1zM9,12h1v1h-1zM10,12h1v1h-1zM12,12h1v1h-1zM14,12h1v1h-1zM15,12h1v1h-1zM18,12h1v1h-1zM20,12h1v1h-1zM21,12h1v1h-1zM22,12h1v1h-1zM23,12h1v1h-1zM25,12h1v1h-1zM28,12h1v1h-1zM30,12h1v1h-1zM33,12h1v1h-1zM35,12h1v1h-1zM4,13h1v1h-1zM6,13h1v1h-1zM7,13h1v1h-1zM9,13h1v1h-1zM11,13h1v1h-1zM12,13h1v1h-1zM13,13h1v1h-1zM14,13h1v1h-1zM16,13h1v1h-1zM17,13h1v1h-1zM19,13h1v1h-1zM20,13h1v1h-1zM21,13h1v1h-1zM24,13h1v1h-1zM26,13h1v1h-1zM28,13h1v1h-1zM29,13h1v1h-1zM30,13h1v1h-1zM32,13h1v1h-1zM34,13h1v1h-1zM37,13h1v1h-1zM40,13h1v1h-1zM4,14h1v1h-1zM7,14h1v1h-1zM9,14h1v1h-1zM10,14h1v1h-1zM11,14h1v1h-1zM12,14h1v1h-1zM14,14h1v1h-1zM16,14h1v1h-1zM18,14h1v1h-1zM19,14h1v1h-1zM21,14h1v1h-1zM22,14h1v1h-1zM23,14h1v1h-1zM24,14h1v1h-1zM29,14h1v1h-1zM32,14h1v1h-1zM34,14h1v1h-1zM36,14h1v1h-1zM37,14h1v1h-1zM39,14h1v1h-1zM40,14h1v1h-1zM4,15h1v1h-1zM5,15h1v1h-1zM7,15h1v1h-1zM9,15h1v1h-1zM11,15h1v1h-1zM13,15h1v1h-1zM15,15h1v1h-1zM20,15h1v1h-1zM22,15h1v1h-1zM23,15h1v1h-1zM25,15h1v1h-1zM27,15h1v1h-1zM29,15h1v1h-1zM30,15h1v1h-1zM32,15h1v1h-1zM34,15h1v1h-1zM35,15h1v1h-1zM36,15h1v1h-1zM5,16h1v1h-1zM7,16h1v1h-1zM10,16h1v1h-1zM13,16h1v1h-1zM16,16h1v1h-1zM19,16h1v1h-1zM24,16h1v1h-1zM27,16h1v1h-1zM28,16h1v1h-1zM29,16h1v1h-1zM31,16h1v1h-1zM32,16h1v1h-1zM34,16h1v1h-1zM37,16h1v1h-1zM38,16h1v1h-1zM39,16h1v1h-1zM40,16h1v1h-1zM4,17h1v1h-1zM5,17h1v1h-1zM6,17h1v1h-1zM8,17h1v1h-1zM12,17h1v1h-1zM13,17h1v1h-1zM14,17h1v1h-1zM15,17h1v1h-1zM19,17h1v1h-1zM22,17h1v1h-1zM24,17h1v1h-1zM25,17h1v1h-1zM26,17h1v1h-1zM29,17h1v1h-1zM34,17h1v1h-1zM35,17h1v1h-1zM38,17h1v1h-1zM39,17h1v1h-1zM4,18h1v1h-1zM6,18h1v1h-1zM8,18h1v1h-1zM9,18h1v1h-1zM10,18h1v1h-1zM12,18h1v1h-1zM14,18h1v1h-1zM16,18h1v1h-1zM18,18h1v1h-1zM20,18h1v1h-1zM24,18h1v1h-1zM27,18h1v1h-1zM29,18h1v1h-1zM30,18h1v1h-1zM32,18h1v1h-1zM33,18h1v1h-1zM34,18h1v1h-1zM35,18h1v1h-1zM36,18h1v1h-1zM38,18h1v1h-1zM40,18h1v1h-1zM8,19h1v1h-1zM9,19h1v1h-1zM15,19h1v1h-1zM23,19h1v1h-1zM24,19h1v1h-1zM25,19h1v1h-1zM26,19h1v1h-1zM28,19h1v1h-1zM29,19h1v1h-1zM30,19h1v1h-1zM32,19h1v1h-1zM33,19h1v1h-1zM34,19h1v1h-1zM36,19h1v1h-1zM40,19h1v1h-1zM4,20h1v1h-1zM9,20h1v1h-1zM10,20h1v1h-1zM13,20h1v1h-1zM14,20h1v1h-1zM15,20h1v1h-1zM19,20h1v1h-1zM20,20h1v1h-1zM23,20h1v1h-1zM25,20h1v1h-1zM26,20h1v1h-1zM27,20h1v1h-1zM28,20h1v1h-1zM31,20h1v1h-1zM32,20h1v1h-1zM33,20h1v1h-1zM34,20h1v1h-1zM35,20h1v1h-1zM37,20h1v1h-1zM38,20h1v1h-1zM40,20h1v1h-1zM4,21h1v1h-1zM6,21h1v1h-1zM7,21h1v1h-1zM8,21h1v1h-1zM13,21h1v1h-1zM14,21h1v1h-1zM17,21h1v1h-1zM19,21h1v1h-1zM27,21h1v1h-1zM28,21h1v1h-1zM31,21h1v1h-1zM32,21h1v1h-1zM34,21h1v1h-1zM36,21h1v1h-1zM38,21h1v1h-1zM39,21h1v1h-1zM40,21h1v1h-1zM5,22h1v1h-1zM6,22h1v1h-1zM8,22h1v1h-1zM9,22h1v1h-1zM10,22h1v1h-1zM21,22h1v1h-1zM22,22h1v1h-1zM24,22h1v1h-1zM26,22h1v1h-1zM28,22h1v1h-1zM30,22h1v1h-1zM32,22h1v1h-1zM34,22h1v1h-1zM36,22h1v1h-1zM37,22h1v1h-1zM39,22h1v1h-1zM40,22h1v1h-1zM6,23h1v1h-1zM7,23h1v1h-1zM11,23h1v1h-1zM15,23h1v1h-1zM16,23h1v1h-1zM18,23h1v1h-1zM19,23h1v1h-1zM20,23h1v1h-1zM21,23h1v1h-1zM25,23h1v1h-1zM28,23h1v1h-1zM34,23h1v1h-1zM38,23h1v1h-1zM39,23h1v1h-1zM4,24h1v1h-1zM6,24h1v1h-1zM8,24h1v1h-1zM9,24h1v1h-1zM10,24h1v1h-1zM12,24h1v1h-1zM14,24h1v1h-1zM15,24h1v1h-1zM16,24h1v1h-1zM17,24h1v1h-1zM21,24h1v1h-1zM23,24h1v1h-1zM24,24h1v1h-1zM28,24h1v1h-1zM29,24h1v1h-1zM30,24h1v1h-1zM31,24h1v1h-1zM32,24h1v1h-1zM34,24h1v1h-1zM36,24h1v1h-1zM38,24h1v1h-1zM39,24h1v1h-1zM4,25h1v1h-1zM8,25h1v1h-1zM13,25h1v1h-1zM14,25h1v1h-1zM17,25h1v1h-1zM18,25h1v1h-1zM19,25h1v1h-1zM20,25h1v1h-1zM21,25h1v1h-1zM23,25h1v1h-1zM24,25h1v1h-1zM26,25h1v1h-1zM28,25h1v1h-1zM29,25h1v1h-1zM30,25h1v1h-1zM33,25h1v1h-1zM34,25h1v1h-1zM35,25h1v1h-1zM37,25h1v1h-1zM40,25h1v1h-1zM4,26h1v1h-1zM5,26h1v1h-1zM6,26h1v1h-1zM7,26h1v1h-1zM10,26h1v1h-1zM12,26h1v1h-1zM16,26h1v1h-1zM20,26h1v1h-1zM22,26h1v1h-1zM23,26h1v1h-1zM26,26h1v1h-1zM30,26h1v1h-1zM32,26h1v1h-1zM39,26h1v1h-1zM40,26h1v1h-1zM5,27h1v1h-1zM6,27h1v1h-1zM8,27h1v1h-1zM9,27h1v1h-1zM14,27h1v1h-1zM17,27h1v1h-1zM18,27h1v1h-1zM22,27h1v1h-1zM25,27h1v1h-1zM26,27h1v1h-1zM29,27h1v1h-1zM30,27h1v1h-1zM32,27h1v1h-1zM33,27h1v1h-1zM5,28h1v1h-1zM7,28h1v1h-1zM10,28h1v1h-1zM12,28h1v1h-1zM15,28h1v1h-1zM16,28h1v1h-1zM17,28h1v1h-1zM19,28h1v1h-1zM20,28h1v1h-1zM22,28h1v1h-1zM23,28h1v1h-1zM24,28h1v1h-1zM25,28h1v1h-1zM27,28h1v1h-1zM28,28h1v1h-1zM29,28h1v1h-1zM32,28h1v1h-1zM33,28h1v1h-1zM34,28h1v1h-1zM35,28h1v1h-1zM37,28h1v1h-1zM40,28h1v1h-1zM5,29h1v1h-1zM6,29h1v1h-1zM8,29h1v1h-1zM9,29h1v1h-1zM13,29h1v1h-1zM14,29h1v1h-1zM16,29h1v1h-1zM17,29h1v1h-1zM19,29h1v1h-1zM21,29h1v1h-1zM22,29h1v1h-1zM23,29h1v1h-1zM24,29h1v1h-1zM25,29h1v1h-1zM26,29h1v1h-1zM28,29h1v1h-1zM34,29h1v1h-1zM35,29h1v1h-1zM37,29h1v1h-1zM38,29h1v1h-1zM39,29h1v1h-1zM40,29h1v1h-1zM4,30h1v1h-1zM6,30h1v1h-1zM7,30h1v1h-1zM9,30h1v1h-1zM10,30h1v1h-1zM11,30h1v1h-1zM12,30h1v1h-1zM13,30h1v1h-1zM14,30h1v1h-1zM15,30h1v1h-1zM16,30h1v1h-1zM17,30h1v1h-1zM19,30h1v1h-1zM20,30h1v1h-1zM21,30h1v1h-1zM25,30h1v1h-1zM26,30h1v1h-1zM27,30h1v1h-1zM30,30h1v1h-1zM35,30h1v1h-1zM37,30h1v1h-1zM40,30h1v1h-1zM5,31h1v1h-1zM8,31h1v1h-1zM11,31h1v1h-1zM12,31h1v1h-1zM14,31h1v1h-1zM15,31h1v1h-1zM20,31h1v1h-1zM21,31h1v1h-1zM24,31h1v1h-1zM25,31h1v1h-1zM27,31h1v1h-1zM29,31h1v1h-1zM30,31h1v1h-1zM32,31h1v1h-1zM33,31h1v1h-1zM34,31h1v1h-1zM36,31h1v1h-1zM4,32h1v1h-1zM5,32h1v1h-1zM6,32h1v1h-1zM8,32h1v1h-1zM10,32h1v1h-1zM13,32h1v1h-1zM14,32h1v1h-1zM15,32h1v1h-1zM17,32h1v1h-1zM19,32h1v1h-1zM24,32h1v1h-1zM26,32h1v1h-1zM28,32h1v1h-1zM31,32h1v1h-1zM32,32h1v1h-1zM33,32h1v1h-1zM34,32h1v1h-1zM35,32h1v1h-1zM36,32h1v1h-1zM38,32h1v1h-1zM39,32h1v1h-1zM12,33h1v1h-1zM13,33h1v1h-1zM17,33h1v1h-1zM18,33h1v1h-1zM19,33h1v1h-1zM20,33h1v1h-1zM21,33h1v1h-1zM22,33h1v1h-1zM24,33h1v1h-1zM25,33h1v1h-1zM27,33h1v1h-1zM28,33h1v1h-1zM30,33h1v1h-1zM32,33h1v1h-1zM36,33h1v1h-1zM37,33h1v1h-1zM39,33h1v1h-1zM4,34h1v1h-1zM5,34h1v1h-1zM6,34h1v1h-1zM7,34h1v1h-1zM8,34h1v1h-1zM9,34h1v1h-1zM10,34h1v1h-1zM13,34h1v1h-1zM14,34h1v1h-1zM15,34h1v1h-1zM17,34h1v1h-1zM18,34h1v1h-1zM20,34h1v1h-1zM21,34h1v1h-1zM26,34h1v1h-1zM28,34h1v1h-1zM30,34h1v1h-1zM31,34h1v1h-1zM32,34h1v1h-1zM34,34h1v1h-1zM36,34h1v1h-1zM37,34h1v1h-1zM39,34h1v1h-1zM40,34h1v1h-1zM4,35h1v1h-1zM10,35h1v1h-1zM12,35h1v1h-1zM16,35h1v1h-1zM17,35h1v1h-1zM20,35h1v1h-1zM25,35h1v1h-1zM28,35h1v1h-1zM30,35h1v1h-1zM31,35h1v1h-1zM32,35h1v1h-1zM36,35h1v1h-1zM37,35h1v1h-1zM38,35h1v1h-1zM40,35h1v1h-1zM4,36h1v1h-1zM6,36h1v1h-1zM7,36h1v1h-1zM8,36h1v1h-1zM10,36h1v1h-1zM14,36h1v1h-1zM15,36h1v1h-1zM17,36h1v1h-1zM18,36h1v1h-1zM21,36h1v1h-1zM23,36h1v1h-1zM25,36h1v1h-1zM28,36h1v1h-1zM29,36h1v1h-1zM30,36h1v1h-1zM32,36h1v1h-1zM33,36h1v1h-1zM34,36h1v1h-1zM35,36h1v1h-1zM36,36h1v1h-1zM37,36h1v1h-1zM4,37h1v1h-1zM6,37h1v1h-1zM7,37h1v1h-1zM8,37h1v1h-1zM10,37h1v1h-1zM12,37h1v1h-1zM15,37h1v1h-1zM17,37h1v1h-1zM18,37h1v1h-1zM19,37h1v1h-1zM28,37h1v1h-1zM29,37h1v1h-1zM30,37h1v1h-1zM31,37h1v1h-1zM35,37h1v1h-1zM36,37h1v1h-1zM38,37h1v1h-1zM39,37h1v1h-1zM4,38h1v1h-1zM6,38h1v1h-1zM7,38h1v1h-1zM8,38h1v1h-1zM10,38h1v1h-1zM14,38h1v1h-1zM17,38h1v1h-1zM20,38h1v1h-1zM21,38h1v1h-1zM23,38h1v1h-1zM24,38h1v1h-1zM26,38h1v1h-1zM30,38h1v1h-1zM31,38h1v1h-1zM33,38h1v1h-1zM35,38h1v1h-1zM36,38h1v1h-1zM37,38h1v1h-1zM38,38h1v1h-1zM39,38h1v1h-1zM40,38h1v1h-1zM4,39h1v1h-1zM10,39h1v1h-1zM13,39h1v1h-1zM14,39h1v1h-1zM15,39h1v1h-1zM18,39h1v1h-1zM19,39h1v1h-1zM22,39h1v1h-1zM24,39h1v1h-1zM25,39h1v1h-1zM26,39h1v1h-1zM27,39h1v1h-1zM29,39h1v1h-1zM30,39h1v1h-1zM31,39h1v1h-1zM32,39h1v1h-1zM35,39h1v1h-1zM4,40h1v1h-1zM5,40h1v1h-1zM6,40h1v1h-1zM7,40h1v1h-1zM8,40h1v1h-1zM9,40h1v1h-1zM10,40h1v1h-1zM12,40h1v1h-1zM13,40h1v1h-1zM15,40h1v1h-1zM16,40h1v1h-1zM17,40h1v1h-1zM18,40h1v1h-1zM20,40h1v1h-1zM24,40h1v1h-1zM28,40h1v1h-1zM29,40h1v1h-1zM30,40h1v1h-1zM31,40h1v1h-1zM32,40h1v1h-1zM33,40h1v1h-1zM39,40h1v1h-1zM40,40h1v1h-1z"/>
</svg>