<svg xmlns="http://www.w3.org/2000/svg" viewBox="0 0 490 490" width="490" height="490" shape-rendering="crispEdges"><rect width="490" height="490" fill="#fff"/><g fill="#000"><rect x="20" y="20" width="10" height="10"/><rect x="30" y="20" width="10" height="10"/><rect x="40" y="20" width="10" height="10"/><rect x="50" y="20" width="10" height="10"/><rect x="60" y="20" width="10" height="10"/><rect x="70" y="20" width="10" height="10"/><rect x="80" y="20" width="10" height="10"/><rect x="110" y="20" width="10" height="10"/><rect x="130" y="20" width="10" height="10"/><rect x="180" y="20" width="10" height="10"/><rect x="190" y="20" width="10" height="10"/><rect x="200" y="20" width="10" height="10"/><rect x="210" y="20" width="10" height="10"/><rect x="260" y="20" width="10" height="10"/><rect x="270" y="20" width="10" height="10"/><rect x="310" y="20" width="10" height="10"/><rect x="320" y="20" width="10" height="10"/><rect x="340" y="20" width="10" height="10"/><rect x="350" y="20" width="10" height="10"/><rect x="380" y="20" width="10" height="10"/><rect x="400" y="20" width="10" height="10"/><rect x="410" y="20" width="10" height="10"/><rect x="420" y="20" width="10" height="10"/><rect x="430" y="20" width="10" height="10"/><rect x="440" y="20" width="10" height="10"/><rect x="450" y="20" width="10" height="10"/><rect x="460" y="20" width="10" height="10"/><rect x="20" y="30" width="10" height="10"/><rect x="80" y="30" width="10" height="10"/><rect x="110" y="30" width="10" height="10"/><rect x="130" y="30" width="10" height="10"/><rect x="150" y="30" width="10" height="10"/><rect x="160" y="30" width="10" height="10"/><rect x="170" y="30" width="10" height="10"/><rect x="200" y="30" width="10" height="10"/><rect x="220" y="30" width="10" height="10"/><rect x="230" y="30" width="10" height="10"/><rect x="250" y="30" width="10" height="10"/><rect x="260" y="30" width="10" height="10"/><rect x="270" y="30" width="10" height="10"/><rect x="280" y="30" width="10" height="10"/><rect x="290" y="30" width="10" height="10"/><rect x="330" y="30" width="10" height="10"/><rect x="340" y="30" width="10" height="10"/><rect x="370" y="30" width="10" height="10"/><rect x="400" y="30" width="10" height="10"/><rect x="460" y="30" width="10" height="10"/><rect x="20" y="40" width="10" height="10"/><rect x="40" y="40" width="10" height="10"/><rect x="50" y="40" width="10" height="10"/><rect x="60" y="40" width="10" height="10"/><rect x="80" y="40" width="10" height="10"/><rect x="100" y="40" width="10" height="10"/><rect x="120" y="40" width="10" height="10"/><rect x="130" y="40" width="10" height="10"/><rect x="160" y="40" width="10" height="10"/><rect x="180" y="40" width="10" height="10"/><rect x="190" y="40" width="10" height="10"/><rect x="200" y="40" width="10" height="10"/><rect x="210" y="40" width="10" height="10"/><rect x="220" y="40" width="10" height="10"/><rect x="250" y="40" width="10" height="10"/><rect x="270" y="40" width="10" height="10"/><rect x="280" y="40" width="10" height="10"/><rect x="300" y="40" width="10" height="10"/><rect x="310" y="40" width="10" height="10"/><rect x="340" y="40" width="10" height="10"/><rect x="350" y="40" width="10" height="10"/><rect x="370" y="40" width="10" height="10"/><rect x="400" y="40" width="10" height="10"/><rect x="420" y="40" width="10" height="10"/><rect x="430" y="40" width="10" height="10"/><rect x="440" y="40" width="10" height="10"/><rect x="460" y="40" width="10" height="10"/><rect x="20" y="50" width="10" height="10"/><rect x="40" y="50" width="10" height="10"/><rect x="50" y="50" width="10" height="10"/><rect x="60" y="50" width="10" height="10"/><rect x="80" y="50" width="10" height="10"/><rect x="100" y="50" width="10" height="10"/><rect x="140" y="50" width="10" height="10"/><rect x="150" y="50" width="10" height="10"/><rect x="190" y="50" width="10" height="10"/><rect x="200" y="50" width="10" height="10"/><rect x="230" y="50" width="10" height="10"/><rect x="240" y="50" width="10" height="10"/><rect x="250" y="50" width="10" height="10"/><rect x="280" y="50" width="10" height="10"/><rect x="310" y="50" width="10" height="10"/><rect x="330" y="50" width="10" height="10"/><rect x="370" y="50" width="10" height="10"/><rect x="380" y="50" width="10" height="10"/><rect x="400" y="50" width="10" height="10"/><rect x="420" y="50" width="10" height="10"/><rect x="430" y="50" width="10" height="10"/><rect x="440" y="50" width="10" height="10"/><rect x="460" y="50" width="10" height="10"/><rect x="20" y="60" width="10" height="10"/><rect x="40" y="60" width="10" height="10"/><rect x="50" y="60" width="10" height="10"/><rect x="60" y="60" width="10" height="10"/><rect x="80" y="60" width="10" height="10"/><rect x="100" y="60" width="10" height="10"/><rect x="110" y="60" width="10" height="10"/><rect x="130" y="60" width="10" height="10"/><rect x="140" y="60" width="10" height="10"/><rect x="150" y="60" width="10" height="10"/><rect x="170" y="60" width="10" height="10"/><rect x="190" y="60" width="10" height="10"/><rect x="210" y="60" width="10" height="10"/><rect x="220" y="60" width="10" height="10"/><rect x="230" y="60" width="10" height="10"/><rect x="240" y="60" width="10" height="10"/><rect x="250" y="60" width="10" height="10"/><rect x="260" y="60" width="10" height="10"/><rect x="270" y="60" width="10" height="10"/><rect x="310" y="60" width="10" height="10"/><rect x="320" y="60" width="10" height="10"/><rect x="340" y="60" width="10" height="10"/><rect x="360" y="60" width="10" height="10"/><rect x="370" y="60" width="10" height="10"/><rect x="380" y="60" width="10" height="10"/><rect x="400" y="60" width="10" height="10"/><rect x="420" y="60" width="10" height="10"/><rect x="430" y="60" width="10" height="10"/><rect x="440" y="60" width="10" height="10"/><rect x="460" y="60" width="10" height="10"/><rect x="20" y="70" width="10" height="10"/><rect x="80" y="70" width="10" height="10"/><rect x="100" y="70" width="10" height="10"/><rect x="140" y="70" width="10" height="10"/><rect x="150" y="70" width="10" height="10"/><rect x="160" y="70" width="10" height="10"/><rect x="190" y="70" width="10" height="10"/><rect x="220" y="70" width="10" height="10"/><rect x="260" y="70" width="10" height="10"/><rect x="280" y="70" width="10" height="10"/><rect x="290" y="70" width="10" height="10"/><rect x="300" y="70" width="10" height="10"/><rect x="330" y="70" width="10" height="10"/><rect x="350" y="70" width="10" height="10"/><rect x="400" y="70" width="10" height="10"/><rect x="460" y="70" width="10" height="10"/><rect x="20" y="80" width="10" height="10"/><rect x="30" y="80" width="10" height="10"/><rect x="40" y="80" width="10" height="10"/><rect x="50" y="80" width="10" height="10"/><rect x="60" y="80" width="10" height="10"/><rect x="70" y="80" width="10" height="10"/><rect x="80" y="80" width="10" height="10"/><rect x="100" y="80" width="10" height="10"/><rect x="120" y="80" width="10" height="10"/><rect x="140" y="80" width="10" height="10"/><rect x="160" y="80" width="10" height="10"/><rect x="180" y="80" width="10" height="10"/><rect x="200" y="80" width="10" height="10"/><rect x="220" y="80" width="10" height="10"/><rect x="240" y="80" width="10" height="10"/><rect x="260" y="80" width="10" height="10"/><rect x="280" y="80" width="10" height="10"/><rect x="300" y="80" width="10" height="10"/><rect x="320" y="80" width="10" height="10"/><rect x="340" y="80" width="10" height="10"/><rect x="360" y="80" width="10" height="10"/><rect x="380" y="80" width="10" height="10"/><rect x="400" y="80" width="10" height="10"/><rect x="410" y="80" width="10" height="10"/><rect x="420" y="80" width="10" height="10"/><rect x="430" y="80" width="10" height="10"/><rect x="440" y="80" width="10" height="10"/><rect x="450" y="80" width="10" height="10"/><rect x="460" y="80" width="10" height="10"/><rect x="100" y="90" width="10" height="10"/><rect x="150" y="90" width="10" height="10"/><rect x="170" y="90" width="10" height="10"/><rect x="180" y="90" width="10" height="10"/><rect x="220" y="90" width="10" height="10"/><rect x="260" y="90" width="10" height="10"/><rect x="290" y="90" width="10" height="10"/><rect x="300" y="90" width="10" height="10"/><rect x="310" y="90" width="10" height="10"/><rect x="330" y="90" width="10" height="10"/><rect x="350" y="90" width="10" height="10"/><rect x="20" y="100" width="10" height="10"/><rect x="40" y="100" width="10" height="10"/><rect x="50" y="100" width="10" height="10"/><rect x="60" y="100" width="10" height="10"/><rect x="70" y="100" width="10" height="10"/><rect x="80" y="100" width="10" height="10"/><rect x="120" y="100" width="10" height="10"/><rect x="140" y="100" width="10" height="10"/><rect x="150" y="100" width="10" height="10"/><rect x="190" y="100" width="10" height="10"/><rect x="210" y="100" width="10" height="10"/><rect x="220" y="100" width="10" height="10"/><rect x="230" y="100" width="10" height="10"/><rect x="240" y="100" width="10" height="10"/><rect x="250" y="100" width="10" height="10"/><rect x="260" y="100" width="10" height="10"/><rect x="280" y="100" width="10" height="10"/><rect x="310" y="100" width="10" height="10"/><rect x="330" y="100" width="10" height="10"/><rect x="350" y="100" width="10" height="10"/><rect x="360" y="100" width="10" height="10"/><rect x="400" y="100" width="10" height="10"/><rect x="410" y="100" width="10" height="10"/><rect x="420" y="100" width="10" height="10"/><rect x="430" y="100" width="10" height="10"/><rect x="440" y="100" width="10" height="10"/><rect x="30" y="110" width="10" height="10"/><rect x="40" y="110" width="10" height="10"/><rect x="70" y="110" width="10" height="10"/><rect x="90" y="110" width="10" height="10"/><rect x="100" y="110" width="10" height="10"/><rect x="120" y="110" width="10" height="10"/><rect x="140" y="110" width="10" height="10"/><rect x="160" y="110" width="10" height="10"/><rect x="170" y="110" width="10" height="10"/><rect x="200" y="110" width="10" height="10"/><rect x="260" y="110" width="10" height="10"/><rect x="310" y="110" width="10" height="10"/><rect x="320" y="110" width="10" height="10"/><rect x="340" y="110" width="10" height="10"/><rect x="350" y="110" width="10" height="10"/><rect x="370" y="110" width="10" height="10"/><rect x="380" y="110" width="10" height="10"/><rect x="420" y="110" width="10" height="10"/><rect x="430" y="110" width="10" height="10"/><rect x="440" y="110" width="10" height="10"/><rect x="450" y="110" width="10" height="10"/><rect x="460" y="110" width="10" height="10"/><rect x="20" y="120" width="10" height="10"/><rect x="40" y="120" width="10" height="10"/><rect x="60" y="120" width="10" height="10"/><rect x="80" y="120" width="10" height="10"/><rect x="100" y="120" width="10" height="10"/><rect x="110" y="120" width="10" height="10"/><rect x="120" y="120" width="10" height="10"/><rect x="130" y="120" width="10" height="10"/><rect x="150" y="120" width="10" height="10"/><rect x="170" y="120" width="10" height="10"/><rect x="180" y="120" width="10" height="10"/><rect x="190" y="120" width="10" height="10"/><rect x="210" y="120" width="10" height="10"/><rect x="230" y="120" width="10" height="10"/><rect x="260" y="120" width="10" height="10"/><rect x="280" y="120" width="10" height="10"/><rect x="360" y="120" width="10" height="10"/><rect x="370" y="120" width="10" height="10"/><rect x="380" y="120" width="10" height="10"/><rect x="390" y="120" width="10" height="10"/><rect x="400" y="120" width="10" height="10"/><rect x="410" y="120" width="10" height="10"/><rect x="430" y="120" width="10" height="10"/><rect x="450" y="120" width="10" height="10"/><rect x="20" y="130" width="10" height="10"/><rect x="40" y="130" width="10" height="10"/><rect x="50" y="130" width="10" height="10"/><rect x="70" y="130" width="10" height="10"/><rect x="90" y="130" width="10" height="10"/><rect x="100" y="130" width="10" height="10"/><rect x="110" y="130" width="10" height="10"/><rect x="120" y="130" width="10" height="10"/><rect x="160" y="130" width="10" height="10"/><rect x="190" y="130" width="10" height="10"/><rect x="200" y="130" width="10" height="10"/><rect x="260" y="130" width="10" height="10"/><rect x="290" y="130" width="10" height="10"/><rect x="300" y="130" width="10" height="10"/><rect x="310" y="130" width="10" height="10"/><rect x="320" y="130" width="10" height="10"/><rect x="340" y="130" width="10" height="10"/><rect x="350" y="130" width="10" height="10"/><rect x="410" y="130" width="10" height="10"/><rect x="420" y="130" width="10" height="10"/><rect x="430" y="130" width="10" height="10"/><rect x="440" y="130" width="10" height="10"/><rect x="30" y="140" width="10" height="10"/><rect x="50" y="140" width="10" height="10"/><rect x="60" y="140" width="10" height="10"/><rect x="70" y="140" width="10" height="10"/><rect x="80" y="140" width="10" height="10"/><rect x="100" y="140" width="10" height="10"/><rect x="110" y="140" width="10" height="10"/><rect x="140" y="140" width="10" height="10"/><rect x="170" y="140" width="10" height="10"/><rect x="180" y="140" width="10" height="10"/><rect x="190" y="140" width="10" height="10"/><rect x="200" y="140" width="10" height="10"/><rect x="210" y="140" width="10" height="10"/><rect x="240" y="140" width="10" height="10"/><rect x="250" y="140" width="10" height="10"/><rect x="270" y="140" width="10" height="10"/><rect x="280" y="140" width="10" height="10"/><rect x="290" y="140" width="10" height="10"/><rect x="310" y="140" width="10" height="10"/><rect x="320" y="140" width="10" height="10"/><rect x="330" y="140" width="10" height="10"/><rect x="350" y="140" width="10" height="10"/><rect x="370" y="140" width="10" height="10"/><rect x="380" y="140" width="10" height="10"/><rect x="400" y="140" width="10" height="10"/><rect x="430" y="140" width="10" height="10"/><rect x="440" y="140" width="10" height="10"/><rect x="460" y="140" width="10" height="10"/><rect x="30" y="150" width="10" height="10"/><rect x="40" y="150" width="10" height="10"/><rect x="120" y="150" width="10" height="10"/><rect x="130" y="150" width="10" height="10"/><rect x="140" y="150" width="10" height="10"/><rect x="160" y="150" width="10" height="10"/><rect x="170" y="150" width="10" height="10"/><rect x="200" y="150" width="10" height="10"/><rect x="240" y="150" width="10" height="10"/><rect x="250" y="150" width="10" height="10"/><rect x="270" y="150" width="10" height="10"/><rect x="290" y="150" width="10" height="10"/><rect x="310" y="150" width="10" height="10"/><rect x="320" y="150" width="10" height="10"/><rect x="330" y="150" width="10" height="10"/><rect x="340" y="150" width="10" height="10"/><rect x="370" y="150" width="10" height="10"/><rect x="380" y="150" width="10" height="10"/><rect x="390" y="150" width="10" height="10"/><rect x="430" y="150" width="10" height="10"/><rect x="460" y="150" width="10" height="10"/><rect x="20" y="160" width="10" height="10"/><rect x="30" y="160" width="10" height="10"/><rect x="50" y="160" width="10" height="10"/><rect x="60" y="160" width="10" height="10"/><rect x="70" y="160" width="10" height="10"/><rect x="80" y="160" width="10" height="10"/><rect x="110" y="160" width="10" height="10"/><rect x="150" y="160" width="10" height="10"/><rect x="160" y="160" width="10" height="10"/><rect x="190" y="160" width="10" height="10"/><rect x="220" y="160" width="10" height="10"/><rect x="230" y="160" width="10" height="10"/><rect x="240" y="160" width="10" height="10"/><rect x="250" y="160" width="10" height="10"/><rect x="260" y="160" width="10" height="10"/><rect x="280" y="160" width="10" height="10"/><rect x="370" y="160" width="10" height="10"/><rect x="410" y="160" width="10" height="10"/><rect x="430" y="160" width="10" height="10"/><rect x="440" y="160" width="10" height="10"/><rect x="450" y="160" width="10" height="10"/><rect x="20" y="170" width="10" height="10"/><rect x="50" y="170" width="10" height="10"/><rect x="60" y="170" width="10" height="10"/><rect x="70" y="170" width="10" height="10"/><rect x="90" y="170" width="10" height="10"/><rect x="110" y="170" width="10" height="10"/><rect x="140" y="170" width="10" height="10"/><rect x="150" y="170" width="10" height="10"/><rect x="160" y="170" width="10" height="10"/><rect x="170" y="170" width="10" height="10"/><rect x="190" y="170" width="10" height="10"/><rect x="210" y="170" width="10" height="10"/><rect x="240" y="170" width="10" height="10"/><rect x="270" y="170" width="10" height="10"/><rect x="290" y="170" width="10" height="10"/><rect x="300" y="170" width="10" height="10"/><rect x="310" y="170" width="10" height="10"/><rect x="320" y="170" width="10" height="10"/><rect x="340" y="170" width="10" height="10"/><rect x="350" y="170" width="10" height="10"/><rect x="370" y="170" width="10" height="10"/><rect x="400" y="170" width="10" height="10"/><rect x="410" y="170" width="10" height="10"/><rect x="420" y="170" width="10" height="10"/><rect x="440" y="170" width="10" height="10"/><rect x="460" y="170" width="10" height="10"/><rect x="20" y="180" width="10" height="10"/><rect x="50" y="180" width="10" height="10"/><rect x="70" y="180" width="10" height="10"/><rect x="80" y="180" width="10" height="10"/><rect x="90" y="180" width="10" height="10"/><rect x="110" y="180" width="10" height="10"/><rect x="150" y="180" width="10" height="10"/><rect x="160" y="180" width="10" height="10"/><rect x="170" y="180" width="10" height="10"/><rect x="180" y="180" width="10" height="10"/><rect x="190" y="180" width="10" height="10"/><rect x="200" y="180" width="10" height="10"/><rect x="230" y="180" width="10" height="10"/><rect x="250" y="180" width="10" height="10"/><rect x="310" y="180" width="10" height="10"/><rect x="350" y="180" width="10" height="10"/><rect x="360" y="180" width="10" height="10"/><rect x="390" y="180" width="10" height="10"/><rect x="430" y="180" width="10" height="10"/><rect x="450" y="180" width="10" height="10"/><rect x="460" y="180" width="10" height="10"/><rect x="30" y="190" width="10" height="10"/><rect x="50" y="190" width="10" height="10"/><rect x="70" y="190" width="10" height="10"/><rect x="90" y="190" width="10" height="10"/><rect x="100" y="190" width="10" height="10"/><rect x="110" y="190" width="10" height="10"/><rect x="200" y="190" width="10" height="10"/><rect x="220" y="190" width="10" height="10"/><rect x="250" y="190" width="10" height="10"/><rect x="270" y="190" width="10" height="10"/><rect x="290" y="190" width="10" height="10"/><rect x="310" y="190" width="10" height="10"/><rect x="320" y="190" width="10" height="10"/><rect x="330" y="190" width="10" height="10"/><rect x="340" y="190" width="10" height="10"/><rect x="370" y="190" width="10" height="10"/><rect x="380" y="190" width="10" height="10"/><rect x="390" y="190" width="10" height="10"/><rect x="420" y="190" width="10" height="10"/><rect x="430" y="190" width="10" height="10"/><rect x="440" y="190" width="10" height="10"/><rect x="460" y="190" width="10" height="10"/><rect x="40" y="200" width="10" height="10"/><rect x="50" y="200" width="10" height="10"/><rect x="60" y="200" width="10" height="10"/><rect x="80" y="200" width="10" height="10"/><rect x="90" y="200" width="10" height="10"/><rect x="140" y="200" width="10" height="10"/><rect x="160" y="200" width="10" height="10"/><rect x="170" y="200" width="10" height="10"/><rect x="190" y="200" width="10" height="10"/><rect x="200" y="200" width="10" height="10"/><rect x="220" y="200" width="10" height="10"/><rect x="230" y="200" width="10" height="10"/><rect x="240" y="200" width="10" height="10"/><rect x="250" y="200" width="10" height="10"/><rect x="260" y="200" width="10" height="10"/><rect x="280" y="200" width="10" height="10"/><rect x="290" y="200" width="10" height="10"/><rect x="330" y="200" width="10" height="10"/><rect x="350" y="200" width="10" height="10"/><rect x="360" y="200" width="10" height="10"/><rect x="370" y="200" width="10" height="10"/><rect x="400" y="200" width="10" height="10"/><rect x="420" y="200" width="10" height="10"/><rect x="430" y="200" width="10" height="10"/><rect x="20" y="210" width="10" height="10"/><rect x="30" y="210" width="10" height="10"/><rect x="50" y="210" width="10" height="10"/><rect x="60" y="210" width="10" height="10"/><rect x="70" y="210" width="10" height="10"/><rect x="120" y="210" width="10" height="10"/><rect x="140" y="210" width="10" height="10"/><rect x="160" y="210" width="10" height="10"/><rect x="170" y="210" width="10" height="10"/><rect x="210" y="210" width="10" height="10"/><rect x="250" y="210" width="10" height="10"/><rect x="280" y="210" width="10" height="10"/><rect x="290" y="210" width="10" height="10"/><rect x="300" y="210" width="10" height="10"/><rect x="310" y="210" width="10" height="10"/><rect x="330" y="210" width="10" height="10"/><rect x="340" y="210" width="10" height="10"/><rect x="360" y="210" width="10" height="10"/><rect x="370" y="210" width="10" height="10"/><rect x="400" y="210" width="10" height="10"/><rect x="410" y="210" width="10" height="10"/><rect x="430" y="210" width="10" height="10"/><rect x="440" y="210" width="10" height="10"/><rect x="450" y="210" width="10" height="10"/><rect x="30" y="220" width="10" height="10"/><rect x="40" y="220" width="10" height="10"/><rect x="60" y="220" width="10" height="10"/><rect x="70" y="220" width="10" height="10"/><rect x="80" y="220" width="10" height="10"/><rect x="90" y="220" width="10" height="10"/><rect x="100" y="220" width="10" height="10"/><rect x="110" y="220" width="10" height="10"/><rect x="130" y="220" width="10" height="10"/><rect x="160" y="220" width="10" height="10"/><rect x="170" y="220" width="10" height="10"/><rect x="190" y="220" width="10" height="10"/><rect x="200" y="220" width="10" height="10"/><rect x="210" y="220" width="10" height="10"/><rect x="220" y="220" width="10" height="10"/><rect x="230" y="220" width="10" height="10"/><rect x="240" y="220" width="10" height="10"/><rect x="250" y="220" width="10" height="10"/><rect x="260" y="220" width="10" height="10"/><rect x="310" y="220" width="10" height="10"/><rect x="320" y="220" width="10" height="10"/><rect x="330" y="220" width="10" height="10"/><rect x="350" y="220" width="10" height="10"/><rect x="360" y="220" width="10" height="10"/><rect x="380" y="220" width="10" height="10"/><rect x="390" y="220" width="10" height="10"/><rect x="400" y="220" width="10" height="10"/><rect x="410" y="220" width="10" height="10"/><rect x="420" y="220" width="10" height="10"/><rect x="430" y="220" width="10" height="10"/><rect x="440" y="220" width="10" height="10"/><rect x="460" y="220" width="10" height="10"/><rect x="20" y="230" width="10" height="10"/><rect x="50" y="230" width="10" height="10"/><rect x="60" y="230" width="10" height="10"/><rect x="100" y="230" width="10" height="10"/><rect x="120" y="230" width="10" height="10"/><rect x="130" y="230" width="10" height="10"/><rect x="170" y="230" width="10" height="10"/><rect x="180" y="230" width="10" height="10"/><rect x="220" y="230" width="10" height="10"/><rect x="260" y="230" width="10" height="10"/><rect x="270" y="230" width="10" height="10"/><rect x="290" y="230" width="10" height="10"/><rect x="300" y="230" width="10" height="10"/><rect x="310" y="230" width="10" height="10"/><rect x="320" y="230" width="10" height="10"/><rect x="370" y="230" width="10" height="10"/><rect x="380" y="230" width="10" height="10"/><rect x="420" y="230" width="10" height="10"/><rect x="430" y="230" width="10" height="10"/><rect x="440" y="230" width="10" height="10"/><rect x="30" y="240" width="10" height="10"/><rect x="60" y="240" width="10" height="10"/><rect x="80" y="240" width="10" height="10"/><rect x="100" y="240" width="10" height="10"/><rect x="120" y="240" width="10" height="10"/><rect x="130" y="240" width="10" height="10"/><rect x="140" y="240" width="10" height="10"/><rect x="150" y="240" width="10" height="10"/><rect x="160" y="240" width="10" height="10"/><rect x="170" y="240" width="10" height="10"/><rect x="200" y="240" width="10" height="10"/><rect x="220" y="240" width="10" height="10"/><rect x="240" y="240" width="10" height="10"/><rect x="260" y="240" width="10" height="10"/><rect x="270" y="240" width="10" height="10"/><rect x="280" y="240" width="10" height="10"/><rect x="290" y="240" width="10" height="10"/><rect x="310" y="240" width="10" height="10"/><rect x="330" y="240" width="10" height="10"/><rect x="340" y="240" width="10" height="10"/><rect x="360" y="240" width="10" height="10"/><rect x="370" y="240" width="10" height="10"/><rect x="380" y="240" width="10" height="10"/><rect x="400" y="240" width="10" height="10"/><rect x="420" y="240" width="10" height="10"/><rect x="440" y="240" width="10" height="10"/><rect x="450" y="240" width="10" height="10"/><rect x="60" y="250" width="10" height="10"/><rect x="100" y="250" width="10" height="10"/><rect x="110" y="250" width="10" height="10"/><rect x="140" y="250" width="10" height="10"/><rect x="160" y="250" width="10" height="10"/><rect x="190" y="250" width="10" height="10"/><rect x="200" y="250" width="10" height="10"/><rect x="220" y="250" width="10" height="10"/><rect x="260" y="250" width="10" height="10"/><rect x="270" y="250" width="10" height="10"/><rect x="280" y="250" width="10" height="10"/><rect x="300" y="250" width="10" height="10"/><rect x="330" y="250" width="10" height="10"/><rect x="340" y="250" width="10" height="10"/><rect x="350" y="250" width="10" height="10"/><rect x="380" y="250" width="10" height="10"/><rect x="420" y="250" width="10" height="10"/><rect x="430" y="250" width="10" height="10"/><rect x="440" y="250" width="10" height="10"/><rect x="450" y="250" width="10" height="10"/><rect x="460" y="250" width="10" height="10"/><rect x="20" y="260" width="10" height="10"/><rect x="30" y="260" width="10" height="10"/><rect x="60" y="260" width="10" height="10"/><rect x="70" y="260" width="10" height="10"/><rect x="80" y="260" width="10" height="10"/><rect x="90" y="260" width="10" height="10"/><rect x="100" y="260" width="10" height="10"/><rect x="110" y="260" width="10" height="10"/><rect x="120" y="260" width="10" height="10"/><rect x="140" y="260" width="10" height="10"/><rect x="170" y="260" width="10" height="10"/><rect x="180" y="260" width="10" height="10"/><rect x="200" y="260" width="10" height="10"/><rect x="210" y="260" width="10" height="10"/><rect x="220" y="260" width="10" height="10"/><rect x="230" y="260" width="10" height="10"/><rect x="240" y="260" width="10" height="10"/><rect x="250" y="260" width="10" height="10"/><rect x="260" y="260" width="10" height="10"/><rect x="280" y="260" width="10" height="10"/><rect x="310" y="260" width="10" height="10"/><rect x="320" y="260" width="10" height="10"/><rect x="330" y="260" width="10" height="10"/><rect x="360" y="260" width="10" height="10"/><rect x="370" y="260" width="10" height="10"/><rect x="380" y="260" width="10" height="10"/><rect x="390" y="260" width="10" height="10"/><rect x="400" y="260" width="10" height="10"/><rect x="410" y="260" width="10" height="10"/><rect x="420" y="260" width="10" height="10"/><rect x="430" y="260" width="10" height="10"/><rect x="450" y="260" width="10" height="10"/><rect x="460" y="260" width="10" height="10"/><rect x="30" y="270" width="10" height="10"/><rect x="40" y="270" width="10" height="10"/><rect x="60" y="270" width="10" height="10"/><rect x="110" y="270" width="10" height="10"/><rect x="130" y="270" width="10" height="10"/><rect x="140" y="270" width="10" height="10"/><rect x="150" y="270" width="10" height="10"/><rect x="190" y="270" width="10" height="10"/><rect x="200" y="270" width="10" height="10"/><rect x="220" y="270" width="10" height="10"/><rect x="230" y="270" width="10" height="10"/><rect x="250" y="270" width="10" height="10"/><rect x="270" y="270" width="10" height="10"/><rect x="290" y="270" width="10" height="10"/><rect x="310" y="270" width="10" height="10"/><rect x="320" y="270" width="10" height="10"/><rect x="330" y="270" width="10" height="10"/><rect x="340" y="270" width="10" height="10"/><rect x="370" y="270" width="10" height="10"/><rect x="390" y="270" width="10" height="10"/><rect x="440" y="270" width="10" height="10"/><rect x="460" y="270" width="10" height="10"/><rect x="20" y="280" width="10" height="10"/><rect x="30" y="280" width="10" height="10"/><rect x="50" y="280" width="10" height="10"/><rect x="70" y="280" width="10" height="10"/><rect x="80" y="280" width="10" height="10"/><rect x="110" y="280" width="10" height="10"/><rect x="120" y="280" width="10" height="10"/><rect x="130" y="280" width="10" height="10"/><rect x="140" y="280" width="10" height="10"/><rect x="190" y="280" width="10" height="10"/><rect x="200" y="280" width="10" height="10"/><rect x="220" y="280" width="10" height="10"/><rect x="240" y="280" width="10" height="10"/><rect x="280" y="280" width="10" height="10"/><rect x="290" y="280" width="10" height="10"/><rect x="300" y="280" width="10" height="10"/><rect x="330" y="280" width="10" height="10"/><rect x="340" y="280" width="10" height="10"/><rect x="350" y="280" width="10" height="10"/><rect x="360" y="280" width="10" height="10"/><rect x="370" y="280" width="10" height="10"/><rect x="380" y="280" width="10" height="10"/><rect x="390" y="280" width="10" height="10"/><rect x="420" y="280" width="10" height="10"/><rect x="450" y="280" width="10" height="10"/><rect x="20" y="290" width="10" height="10"/><rect x="30" y="290" width="10" height="10"/><rect x="60" y="290" width="10" height="10"/><rect x="100" y="290" width="10" height="10"/><rect x="110" y="290" width="10" height="10"/><rect x="120" y="290" width="10" height="10"/><rect x="140" y="290" width="10" height="10"/><rect x="150" y="290" width="10" height="10"/><rect x="190" y="290" width="10" height="10"/><rect x="240" y="290" width="10" height="10"/><rect x="260" y="290" width="10" height="10"/><rect x="270" y="290" width="10" height="10"/><rect x="280" y="290" width="10" height="10"/><rect x="300" y="290" width="10" height="10"/><rect x="310" y="290" width="10" height="10"/><rect x="350" y="290" width="10" height="10"/><rect x="370" y="290" width="10" height="10"/><rect x="400" y="290" width="10" height="10"/><rect x="420" y="290" width="10" height="10"/><rect x="430" y="290" width="10" height="10"/><rect x="440" y="290" width="10" height="10"/><rect x="40" y="300" width="10" height="10"/><rect x="70" y="300" width="10" height="10"/><rect x="80" y="300" width="10" height="10"/><rect x="90" y="300" width="10" height="10"/><rect x="100" y="300" width="10" height="10"/><rect x="110" y="300" width="10" height="10"/><rect x="140" y="300" width="10" height="10"/><rect x="150" y="300" width="10" height="10"/><rect x="160" y="300" width="10" height="10"/><rect x="180" y="300" width="10" height="10"/><rect x="190" y="300" width="10" height="10"/><rect x="210" y="300" width="10" height="10"/><rect x="250" y="300" width="10" height="10"/><rect x="270" y="300" width="10" height="10"/><rect x="280" y="300" width="10" height="10"/><rect x="310" y="300" width="10" height="10"/><rect x="320" y="300" width="10" height="10"/><rect x="330" y="300" width="10" height="10"/><rect x="360" y="300" width="10" height="10"/><rect x="380" y="300" width="10" height="10"/><rect x="400" y="300" width="10" height="10"/><rect x="420" y="300" width="10" height="10"/><rect x="440" y="300" width="10" height="10"/><rect x="450" y="300" width="10" height="10"/><rect x="20" y="310" width="10" height="10"/><rect x="40" y="310" width="10" height="10"/><rect x="50" y="310" width="10" height="10"/><rect x="70" y="310" width="10" height="10"/><rect x="120" y="310" width="10" height="10"/><rect x="130" y="310" width="10" height="10"/><rect x="140" y="310" width="10" height="10"/><rect x="150" y="310" width="10" height="10"/><rect x="200" y="310" width="10" height="10"/><rect x="220" y="310" width="10" height="10"/><rect x="250" y="310" width="10" height="10"/><rect x="270" y="310" width="10" height="10"/><rect x="290" y="310" width="10" height="10"/><rect x="300" y="310" width="10" height="10"/><rect x="310" y="310" width="10" height="10"/><rect x="320" y="310" width="10" height="10"/><rect x="330" y="310" width="10" height="10"/><rect x="340" y="310" width="10" height="10"/><rect x="380" y="310" width="10" height="10"/><rect x="400" y="310" width="10" height="10"/><rect x="440" y="310" width="10" height="10"/><rect x="460" y="310" width="10" height="10"/><rect x="30" y="320" width="10" height="10"/><rect x="40" y="320" width="10" height="10"/><rect x="50" y="320" width="10" height="10"/><rect x="80" y="320" width="10" height="10"/><rect x="90" y="320" width="10" height="10"/><rect x="100" y="320" width="10" height="10"/><rect x="120" y="320" width="10" height="10"/><rect x="130" y="320" width="10" height="10"/><rect x="150" y="320" width="10" height="10"/><rect x="180" y="320" width="10" height="10"/><rect x="210" y="320" width="10" height="10"/><rect x="230" y="320" width="10" height="10"/><rect x="280" y="320" width="10" height="10"/><rect x="300" y="320" width="10" height="10"/><rect x="330" y="320" width="10" height="10"/><rect x="340" y="320" width="10" height="10"/><rect x="350" y="320" width="10" height="10"/><rect x="370" y="320" width="10" height="10"/><rect x="410" y="320" width="10" height="10"/><rect x="430" y="320" width="10" height="10"/><rect x="440" y="320" width="10" height="10"/><rect x="450" y="320" width="10" height="10"/><rect x="20" y="330" width="10" height="10"/><rect x="40" y="330" width="10" height="10"/><rect x="50" y="330" width="10" height="10"/><rect x="90" y="330" width="10" height="10"/><rect x="150" y="330" width="10" height="10"/><rect x="160" y="330" width="10" height="10"/><rect x="170" y="330" width="10" height="10"/><rect x="190" y="330" width="10" height="10"/><rect x="210" y="330" width="10" height="10"/><rect x="220" y="330" width="10" height="10"/><rect x="240" y="330" width="10" height="10"/><rect x="250" y="330" width="10" height="10"/><rect x="260" y="330" width="10" height="10"/><rect x="280" y="330" width="10" height="10"/><rect x="300" y="330" width="10" height="10"/><rect x="330" y="330" width="10" height="10"/><rect x="340" y="330" width="10" height="10"/><rect x="350" y="330" width="10" height="10"/><rect x="360" y="330" width="10" height="10"/><rect x="400" y="330" width="10" height="10"/><rect x="410" y="330" width="10" height="10"/><rect x="440" y="330" width="10" height="10"/><rect x="450" y="330" width="10" height="10"/><rect x="20" y="340" width="10" height="10"/><rect x="40" y="340" width="10" height="10"/><rect x="70" y="340" width="10" height="10"/><rect x="80" y="340" width="10" height="10"/><rect x="100" y="340" width="10" height="10"/><rect x="140" y="340" width="10" height="10"/><rect x="150" y="340" width="10" height="10"/><rect x="190" y="340" width="10" height="10"/><rect x="200" y="340" width="10" height="10"/><rect x="210" y="340" width="10" height="10"/><rect x="250" y="340" width="10" height="10"/><rect x="260" y="340" width="10" height="10"/><rect x="270" y="340" width="10" height="10"/><rect x="310" y="340" width="10" height="10"/><rect x="320" y="340" width="10" height="10"/><rect x="380" y="340" width="10" height="10"/><rect x="400" y="340" width="10" height="10"/><rect x="410" y="340" width="10" height="10"/><rect x="420" y="340" width="10" height="10"/><rect x="430" y="340" width="10" height="10"/><rect x="460" y="340" width="10" height="10"/><rect x="20" y="350" width="10" height="10"/><rect x="40" y="350" width="10" height="10"/><rect x="50" y="350" width="10" height="10"/><rect x="90" y="350" width="10" height="10"/><rect x="100" y="350" width="10" height="10"/><rect x="110" y="350" width="10" height="10"/><rect x="130" y="350" width="10" height="10"/><rect x="150" y="350" width="10" height="10"/><rect x="160" y="350" width="10" height="10"/><rect x="170" y="350" width="10" height="10"/><rect x="200" y="350" width="10" height="10"/><rect x="210" y="350" width="10" height="10"/><rect x="220" y="350" width="10" height="10"/><rect x="250" y="350" width="10" height="10"/><rect x="270" y="350" width="10" height="10"/><rect x="300" y="350" width="10" height="10"/><rect x="310" y="350" width="10" height="10"/><rect x="320" y="350" width="10" height="10"/><rect x="370" y="350" width="10" height="10"/><rect x="380" y="350" width="10" height="10"/><rect x="390" y="350" width="10" height="10"/><rect x="400" y="350" width="10" height="10"/><rect x="430" y="350" width="10" height="10"/><rect x="60" y="360" width="10" height="10"/><rect x="80" y="360" width="10" height="10"/><rect x="100" y="360" width="10" height="10"/><rect x="110" y="360" width="10" height="10"/><rect x="140" y="360" width="10" height="10"/><rect x="160" y="360" width="10" height="10"/><rect x="190" y="360" width="10" height="10"/><rect x="200" y="360" width="10" height="10"/><rect x="220" y="360" width="10" height="10"/><rect x="230" y="360" width="10" height="10"/><rect x="280" y="360" width="10" height="10"/><rect x="300" y="360" width="10" height="10"/><rect x="310" y="360" width="10" height="10"/><rect x="330" y="360" width="10" height="10"/><rect x="360" y="360" width="10" height="10"/><rect x="370" y="360" width="10" height="10"/><rect x="380" y="360" width="10" height="10"/><rect x="390" y="360" width="10" height="10"/><rect x="410" y="360" width="10" height="10"/><rect x="420" y="360" width="10" height="10"/><rect x="430" y="360" width="10" height="10"/><rect x="450" y="360" width="10" height="10"/><rect x="30" y="370" width="10" height="10"/><rect x="40" y="370" width="10" height="10"/><rect x="50" y="370" width="10" height="10"/><rect x="60" y="370" width="10" height="10"/><rect x="100" y="370" width="10" height="10"/><rect x="110" y="370" width="10" height="10"/><rect x="120" y="370" width="10" height="10"/><rect x="140" y="370" width="10" height="10"/><rect x="160" y="370" width="10" height="10"/><rect x="170" y="370" width="10" height="10"/><rect x="190" y="370" width="10" height="10"/><rect x="200" y="370" width="10" height="10"/><rect x="210" y="370" width="10" height="10"/><rect x="220" y="370" width="10" height="10"/><rect x="250" y="370" width="10" height="10"/><rect x="260" y="370" width="10" height="10"/><rect x="270" y="370" width="10" height="10"/><rect x="300" y="370" width="10" height="10"/><rect x="320" y="370" width="10" height="10"/><rect x="340" y="370" width="10" height="10"/><rect x="370" y="370" width="10" height="10"/><rect x="380" y="370" width="10" height="10"/><rect x="390" y="370" width="10" height="10"/><rect x="420" y="370" width="10" height="10"/><rect x="430" y="370" width="10" height="10"/><rect x="440" y="370" width="10" height="10"/><rect x="20" y="380" width="10" height="10"/><rect x="50" y="380" width="10" height="10"/><rect x="60" y="380" width="10" height="10"/><rect x="80" y="380" width="10" height="10"/><rect x="90" y="380" width="10" height="10"/><rect x="130" y="380" width="10" height="10"/><rect x="140" y="380" width="10" height="10"/><rect x="150" y="380" width="10" height="10"/><rect x="180" y="380" width="10" height="10"/><rect x="190" y="380" width="10" height="10"/><rect x="200" y="380" width="10" height="10"/><rect x="210" y="380" width="10" height="10"/><rect x="220" y="380" width="10" height="10"/><rect x="230" y="380" width="10" height="10"/><rect x="240" y="380" width="10" height="10"/><rect x="250" y="380" width="10" height="10"/><rect x="260" y="380" width="10" height="10"/><rect x="320" y="380" width="10" height="10"/><rect x="330" y="380" width="10" height="10"/><rect x="350" y="380" width="10" height="10"/><rect x="360" y="380" width="10" height="10"/><rect x="380" y="380" width="10" height="10"/><rect x="390" y="380" width="10" height="10"/><rect x="400" y="380" width="10" height="10"/><rect x="410" y="380" width="10" height="10"/><rect x="420" y="380" width="10" height="10"/><rect x="450" y="380" width="10" height="10"/><rect x="460" y="380" width="10" height="10"/><rect x="100" y="390" width="10" height="10"/><rect x="140" y="390" width="10" height="10"/><rect x="150" y="390" width="10" height="10"/><rect x="170" y="390" width="10" height="10"/><rect x="180" y="390" width="10" height="10"/><rect x="190" y="390" width="10" height="10"/><rect x="220" y="390" width="10" height="10"/><rect x="260" y="390" width="10" height="10"/><rect x="270" y="390" width="10" height="10"/><rect x="310" y="390" width="10" height="10"/><rect x="320" y="390" width="10" height="10"/><rect x="330" y="390" width="10" height="10"/><rect x="340" y="390" width="10" height="10"/><rect x="370" y="390" width="10" height="10"/><rect x="380" y="390" width="10" height="10"/><rect x="420" y="390" width="10" height="10"/><rect x="430" y="390" width="10" height="10"/><rect x="440" y="390" width="10" height="10"/><rect x="460" y="390" width="10" height="10"/><rect x="20" y="400" width="10" height="10"/><rect x="30" y="400" width="10" height="10"/><rect x="40" y="400" width="10" height="10"/><rect x="50" y="400" width="10" height="10"/><rect x="60" y="400" width="10" height="10"/><rect x="70" y="400" width="10" height="10"/><rect x="80" y="400" width="10" height="10"/><rect x="110" y="400" width="10" height="10"/><rect x="120" y="400" width="10" height="10"/><rect x="140" y="400" width="10" height="10"/><rect x="160" y="400" width="10" height="10"/><rect x="170" y="400" width="10" height="10"/><rect x="180" y="400" width="10" height="10"/><rect x="200" y="400" width="10" height="10"/><rect x="210" y="400" width="10" height="10"/><rect x="220" y="400" width="10" height="10"/><rect x="240" y="400" width="10" height="10"/><rect x="260" y="400" width="10" height="10"/><rect x="280" y="400" width="10" height="10"/><rect x="290" y="400" width="10" height="10"/><rect x="330" y="400" width="10" height="10"/><rect x="340" y="400" width="10" height="10"/><rect x="350" y="400" width="10" height="10"/><rect x="360" y="400" width="10" height="10"/><rect x="370" y="400" width="10" height="10"/><rect x="380" y="400" width="10" height="10"/><rect x="400" y="400" width="10" height="10"/><rect x="420" y="400" width="10" height="10"/><rect x="440" y="400" width="10" height="10"/><rect x="20" y="410" width="10" height="10"/><rect x="80" y="410" width="10" height="10"/><rect x="100" y="410" width="10" height="10"/><rect x="170" y="410" width="10" height="10"/><rect x="190" y="410" width="10" height="10"/><rect x="200" y="410" width="10" height="10"/><rect x="210" y="410" width="10" height="10"/><rect x="220" y="410" width="10" height="10"/><rect x="260" y="410" width="10" height="10"/><rect x="280" y="410" width="10" height="10"/><rect x="290" y="410" width="10" height="10"/><rect x="300" y="410" width="10" height="10"/><rect x="310" y="410" width="10" height="10"/><rect x="340" y="410" width="10" height="10"/><rect x="360" y="410" width="10" height="10"/><rect x="370" y="410" width="10" height="10"/><rect x="380" y="410" width="10" height="10"/><rect x="420" y="410" width="10" height="10"/><rect x="430" y="410" width="10" height="10"/><rect x="440" y="410" width="10" height="10"/><rect x="450" y="410" width="10" height="10"/><rect x="20" y="420" width="10" height="10"/><rect x="40" y="420" width="10" height="10"/><rect x="50" y="420" width="10" height="10"/><rect x="60" y="420" width="10" height="10"/><rect x="80" y="420" width="10" height="10"/><rect x="100" y="420" width="10" height="10"/><rect x="110" y="420" width="10" height="10"/><rect x="120" y="420" width="10" height="10"/><rect x="130" y="420" width="10" height="10"/><rect x="160" y="420" width="10" height="10"/><rect x="200" y="420" width="10" height="10"/><rect x="220" y="420" width="10" height="10"/><rect x="230" y="420" width="10" height="10"/><rect x="240" y="420" width="10" height="10"/><rect x="250" y="420" width="10" height="10"/><rect x="260" y="420" width="10" height="10"/><rect x="270" y="420" width="10" height="10"/><rect x="330" y="420" width="10" height="10"/><rect x="350" y="420" width="10" height="10"/><rect x="360" y="420" width="10" height="10"/><rect x="370" y="420" width="10" height="10"/><rect x="380" y="420" width="10" height="10"/><rect x="390" y="420" width="10" height="10"/><rect x="400" y="420" width="10" height="10"/><rect x="410" y="420" width="10" height="10"/><rect x="420" y="420" width="10" height="10"/><rect x="430" y="420" width="10" height="10"/><rect x="460" y="420" width="10" height="10"/><rect x="20" y="430" width="10" height="10"/><rect x="40" y="430" width="10" height="10"/><rect x="50" y="430" width="10" height="10"/><rect x="60" y="430" width="10" height="10"/><rect x="80" y="430" width="10" height="10"/><rect x="100" y="430" width="10" height="10"/><rect x="110" y="430" width="10" height="10"/><rect x="120" y="430" width="10" height="10"/><rect x="130" y="430" width="10" height="10"/><rect x="140" y="430" width="10" height="10"/><rect x="150" y="430" width="10" height="10"/><rect x="200" y="430" width="10" height="10"/><rect x="210" y="430" width="10" height="10"/><rect x="220" y="430" width="10" height="10"/><rect x="230" y="430" width="10" height="10"/><rect x="250" y="430" width="10" height="10"/><rect x="260" y="430" width="10" height="10"/><rect x="270" y="430" width="10" height="10"/><rect x="290" y="430" width="10" height="10"/><rect x="310" y="430" width="10" height="10"/><rect x="320" y="430" width="10" height="10"/><rect x="370" y="430" width="10" height="10"/><rect x="380" y="430" width="10" height="10"/><rect x="390" y="430" width="10" height="10"/><rect x="400" y="430" width="10" height="10"/><rect x="430" y="430" width="10" height="10"/><rect x="440" y="430" width="10" height="10"/><rect x="450" y="430" width="10" height="10"/><rect x="460" y="430" width="10" height="10"/><rect x="20" y="440" width="10" height="10"/><rect x="40" y="440" width="10" height="10"/><rect x="50" y="440" width="10" height="10"/><rect x="60" y="440" width="10" height="10"/><rect x="80" y="440" width="10" height="10"/><rect x="100" y="440" width="10" height="10"/><rect x="120" y="440" width="10" height="10"/><rect x="130" y="440" width="10" height="10"/><rect x="140" y="440" width="10" height="10"/><rect x="150" y="440" width="10" height="10"/><rect x="190" y="440" width="10" height="10"/><rect x="200" y="440" width="10" height="10"/><rect x="210" y="440" width="10" height="10"/><rect x="220" y="440" width="10" height="10"/><rect x="250" y="440" width="10" height="10"/><rect x="260" y="440" width="10" height="10"/><rect x="280" y="440" width="10" height="10"/><rect x="310" y="440" width="10" height="10"/><rect x="320" y="440" width="10" height="10"/><rect x="330" y="440" width="10" height="10"/><rect x="360" y="440" width="10" height="10"/><rect x="370" y="440" width="10" height="10"/><rect x="380" y="440" width="10" height="10"/><rect x="400" y="440" width="10" height="10"/><rect x="440" y="440" width="10" height="10"/><rect x="450" y="440" width="10" height="10"/><rect x="20" y="450" width="10" height="10"/><rect x="80" y="450" width="10" height="10"/><rect x="110" y="450" width="10" height="10"/><rect x="120" y="450" width="10" height="10"/><rect x="130" y="450" width="10" height="10"/><rect x="140" y="450" width="10" height="10"/><rect x="160" y="450" width="10" height="10"/><rect x="170" y="450" width="10" height="10"/><rect x="190" y="450" width="10" height="10"/><rect x="230" y="450" width="10" height="10"/><rect x="240" y="450" width="10" height="10"/><rect x="250" y="450" width="10" height="10"/><rect x="260" y="450" width="10" height="10"/><rect x="270" y="450" width="10" height="10"/><rect x="280" y="450" width="10" height="10"/><rect x="290" y="450" width="10" height="10"/><rect x="300" y="450" width="10" height="10"/><rect x="310" y="450" width="10" height="10"/><rect x="320" y="450" width="10" height="10"/><rect x="330" y="450" width="10" height="10"/><rect x="360" y="450" width="10" height="10"/><rect x="380" y="450" width="10" height="10"/><rect x="390" y="450" width="10" height="10"/><rect x="420" y="450" width="10" height="10"/><rect x="430" y="450" width="10" height="10"/><rect x="440" y="450" width="10" height="10"/><rect x="20" y="460" width="10" height="10"/><rect x="30" y="460" width="10" height="10"/><rect x="40" y="460" width="10" height="10"/><rect x="50" y="460" width="10" height="10"/><rect x="60" y="460" width="10" height="10"/><rect x="70" y="460" width="10" height="10"/><rect x="80" y="460" width="10" height="10"/><rect x="100" y="460" width="10" height="10"/><rect x="110" y="460" width="10" height="10"/><rect x="120" y="460" width="10" height="10"/><rect x="130" y="460" width="10" height="10"/><rect x="160" y="460" width="10" height="10"/><rect x="180" y="460" width="10" height="10"/><rect x="190" y="460" width="10" height="10"/><rect x="210" y="460" width="10" height="10"/><rect x="230" y="460" width="10" height="10"/><rect x="250" y="460" width="10" height="10"/><rect x="260" y="460" width="10" height="10"/><rect x="280" y="460" width="10" height="10"/><rect x="310" y="460" width="10" height="10"/><rect x="320" y="460" width="10" height="10"/><rect x="330" y="460" width="10" height="10"/><rect x="360" y="460" width="10" height="10"/><rect x="370" y="460" width="10" height="10"/><rect x="400" y="460" width="10" height="10"/><rect x="430" y="460" width="10" height="10"/><rect x="440" y="460" width="10" height="10"/><rect x="450" y="460" width="10" height="10"/></g></svg>