<svg xmlns="http://www.w3.org/2000/svg" viewBox="0 0 410 410" width="410" height="410" shape-rendering="crispEdges"><rect width="410" height="410" fill="#fff"/><g fill="#000"><rect x="20" y="20" width="10" height="10"/><rect x="30" y="20" width="10" height="10"/><rect x="40" y="20" width="10" height="10"/><rect x="50" y="20" width="10" height="10"/><rect x="60" y="20" width="10" height="10"/><rect x="70" y="20" width="10" height="10"/><rect x="80" y="20" width="10" height="10"/><rect x="100" y="20" width="10" height="10"/><rect x="120" y="20" width="10" height="10"/><rect x="170" y="20" width="10" height="10"/><rect x="200" y="20" width="10" height="10"/><rect x="230" y="20" width="10" height="10"/><rect x="240" y="20" width="10" height="10"/><rect x="280" y="20" width="10" height="10"/><rect x="320" y="20" width="10" height="10"/><rect x="330" y="20" width="10" height="10"/><rect x="340" y="20" width="10" height="10"/><rect x="350" y="20" width="10" height="10"/><rect x="360" y="20" width="10" height="10"/><rect x="370" y="20" width="10" height="10"/><rect x="380" y="20" width="10" height="10"/><rect x="20" y="30" width="10" height="10"/><rect x="80" y="30" width="10" height="10"/><rect x="100" y="30" width="10" height="10"/><rect x="130" y="30" width="10" height="10"/><rect x="150" y="30" width="10" height="10"/><rect x="160" y="30" width="10" height="10"/><rect x="170" y="30" width="10" height="10"/><rect x="180" y="30" width="10" height="10"/><rect x="190" y="30" width="10" height="10"/><rect x="210" y="30" width="10" height="10"/><rect x="220" y="30" width="10" height="10"/><rect x="230" y="30" width="10" height="10"/><rect x="240" y="30" width="10" height="10"/><rect x="270" y="30" width="10" height="10"/><rect x="280" y="30" width="10" height="10"/><rect x="300" y="30" width="10" height="10"/><rect x="320" y="30" width="10" height="10"/><rect x="380" y="30" width="10" height="10"/><rect x="20" y="40" width="10" height="10"/><rect x="40" y="40" width="10" height="10"/><rect x="50" y="40" width="10" height="10"/><rect x="60" y="40" width="10" height="10"/><rect x="80" y="40" width="10" height="10"/><rect x="100" y="40" width="10" height="10"/><rect x="110" y="40" width="10" height="10"/><rect x="120" y="40" width="10" height="10"/><rect x="180" y="40" width="10" height="10"/><rect x="210" y="40" width="10" height="10"/><rect x="220" y="40" width="10" height="10"/><rect x="230" y="40" width="10" height="10"/><rect x="240" y="40" width="10" height="10"/><rect x="250" y="40" width="10" height="10"/><rect x="270" y="40" width="10" height="10"/><rect x="280" y="40" width="10" height="10"/><rect x="290" y="40" width="10" height="10"/><rect x="300" y="40" width="10" height="10"/><rect x="320" y="40" width="10" height="10"/><rect x="340" y="40" width="10" height="10"/><rect x="350" y="40" width="10" height="10"/><rect x="360" y="40" width="10" height="10"/><rect x="380" y="40" width="10" height="10"/><rect x="20" y="50" width="10" height="10"/><rect x="40" y="50" width="10" height="10"/><rect x="50" y="50" width="10" height="10"/><rect x="60" y="50" width="10" height="10"/><rect x="80" y="50" width="10" height="10"/><rect x="120" y="50" width="10" height="10"/><rect x="150" y="50" width="10" height="10"/><rect x="160" y="50" width="10" height="10"/><rect x="170" y="50" width="10" height="10"/><rect x="180" y="50" width="10" height="10"/><rect x="250" y="50" width="10" height="10"/><rect x="260" y="50" width="10" height="10"/><rect x="270" y="50" width="10" height="10"/><rect x="290" y="50" width="10" height="10"/><rect x="300" y="50" width="10" height="10"/><rect x="320" y="50" width="10" height="10"/><rect x="340" y="50" width="10" height="10"/><rect x="350" y="50" width="10" height="10"/><rect x="360" y="50" width="10" height="10"/><rect x="380" y="50" width="10" height="10"/><rect x="20" y="60" width="10" height="10"/><rect x="40" y="60" width="10" height="10"/><rect x="50" y="60" width="10" height="10"/><rect x="60" y="60" width="10" height="10"/><rect x="80" y="60" width="10" height="10"/><rect x="100" y="60" width="10" height="10"/><rect x="130" y="60" width="10" height="10"/><rect x="160" y="60" width="10" height="10"/><rect x="170" y="60" width="10" height="10"/><rect x="200" y="60" width="10" height="10"/><rect x="250" y="60" width="10" height="10"/><rect x="270" y="60" width="10" height="10"/><rect x="300" y="60" width="10" height="10"/><rect x="320" y="60" width="10" height="10"/><rect x="340" y="60" width="10" height="10"/><rect x="350" y="60" width="10" height="10"/><rect x="360" y="60" width="10" height="10"/><rect x="380" y="60" width="10" height="10"/><rect x="20" y="70" width="10" height="10"/><rect x="80" y="70" width="10" height="10"/><rect x="110" y="70" width="10" height="10"/><rect x="150" y="70" width="10" height="10"/><rect x="180" y="70" width="10" height="10"/><rect x="190" y="70" width="10" height="10"/><rect x="250" y="70" width="10" height="10"/><rect x="280" y="70" width="10" height="10"/><rect x="320" y="70" width="10" height="10"/><rect x="380" y="70" width="10" height="10"/><rect x="20" y="80" width="10" height="10"/><rect x="30" y="80" width="10" height="10"/><rect x="40" y="80" width="10" height="10"/><rect x="50" y="80" width="10" height="10"/><rect x="60" y="80" width="10" height="10"/><rect x="70" y="80" width="10" height="10"/><rect x="80" y="80" width="10" height="10"/><rect x="100" y="80" width="10" height="10"/><rect x="120" y="80" width="10" height="10"/><rect x="140" y="80" width="10" height="10"/><rect x="160" y="80" width="10" height="10"/><rect x="180" y="80" width="10" height="10"/><rect x="200" y="80" width="10" height="10"/><rect x="220" y="80" width="10" height="10"/><rect x="240" y="80" width="10" height="10"/><rect x="260" y="80" width="10" height="10"/><rect x="280" y="80" width="10" height="10"/><rect x="300" y="80" width="10" height="10"/><rect x="320" y="80" width="10" height="10"/><rect x="330" y="80" width="10" height="10"/><rect x="340" y="80" width="10" height="10"/><rect x="350" y="80" width="10" height="10"/><rect x="360" y="80" width="10" height="10"/><rect x="370" y="80" width="10" height="10"/><rect x="380" y="80" width="10" height="10"/><rect x="140" y="90" width="10" height="10"/><rect x="150" y="90" width="10" height="10"/><rect x="160" y="90" width="10" height="10"/><rect x="170" y="90" width="10" height="10"/><rect x="180" y="90" width="10" height="10"/><rect x="210" y="90" width="10" height="10"/><rect x="220" y="90" width="10" height="10"/><rect x="250" y="90" width="10" height="10"/><rect x="270" y="90" width="10" height="10"/><rect x="280" y="90" width="10" height="10"/><rect x="290" y="90" width="10" height="10"/><rect x="300" y="90" width="10" height="10"/><rect x="20" y="100" width="10" height="10"/><rect x="50" y="100" width="10" height="10"/><rect x="60" y="100" width="10" height="10"/><rect x="70" y="100" width="10" height="10"/><rect x="80" y="100" width="10" height="10"/><rect x="90" y="100" width="10" height="10"/><rect x="100" y="100" width="10" height="10"/><rect x="120" y="100" width="10" height="10"/><rect x="130" y="100" width="10" height="10"/><rect x="140" y="100" width="10" height="10"/><rect x="150" y="100" width="10" height="10"/><rect x="160" y="100" width="10" height="10"/><rect x="190" y="100" width="10" height="10"/><rect x="210" y="100" width="10" height="10"/><rect x="220" y="100" width="10" height="10"/><rect x="250" y="100" width="10" height="10"/><rect x="260" y="100" width="10" height="10"/><rect x="280" y="100" width="10" height="10"/><rect x="290" y="100" width="10" height="10"/><rect x="300" y="100" width="10" height="10"/><rect x="310" y="100" width="10" height="10"/><rect x="340" y="100" width="10" height="10"/><rect x="360" y="100" width="10" height="10"/><rect x="370" y="100" width="10" height="10"/><rect x="380" y="100" width="10" height="10"/><rect x="20" y="110" width="10" height="10"/><rect x="40" y="110" width="10" height="10"/><rect x="50" y="110" width="10" height="10"/><rect x="60" y="110" width="10" height="10"/><rect x="120" y="110" width="10" height="10"/><rect x="140" y="110" width="10" height="10"/><rect x="150" y="110" width="10" height="10"/><rect x="160" y="110" width="10" height="10"/><rect x="180" y="110" width="10" height="10"/><rect x="200" y="110" width="10" height="10"/><rect x="210" y="110" width="10" height="10"/><rect x="230" y="110" width="10" height="10"/><rect x="250" y="110" width="10" height="10"/><rect x="290" y="110" width="10" height="10"/><rect x="310" y="110" width="10" height="10"/><rect x="330" y="110" width="10" height="10"/><rect x="340" y="110" width="10" height="10"/><rect x="350" y="110" width="10" height="10"/><rect x="360" y="110" width="10" height="10"/><rect x="370" y="110" width="10" height="10"/><rect x="40" y="120" width="10" height="10"/><rect x="60" y="120" width="10" height="10"/><rect x="80" y="120" width="10" height="10"/><rect x="90" y="120" width="10" height="10"/><rect x="100" y="120" width="10" height="10"/><rect x="110" y="120" width="10" height="10"/><rect x="140" y="120" width="10" height="10"/><rect x="160" y="120" width="10" height="10"/><rect x="170" y="120" width="10" height="10"/><rect x="180" y="120" width="10" height="10"/><rect x="200" y="120" width="10" height="10"/><rect x="220" y="120" width="10" height="10"/><rect x="230" y="120" width="10" height="10"/><rect x="250" y="120" width="10" height="10"/><rect x="290" y="120" width="10" height="10"/><rect x="310" y="120" width="10" height="10"/><rect x="320" y="120" width="10" height="10"/><rect x="380" y="120" width="10" height="10"/><rect x="120" y="130" width="10" height="10"/><rect x="130" y="130" width="10" height="10"/><rect x="150" y="130" width="10" height="10"/><rect x="180" y="130" width="10" height="10"/><rect x="190" y="130" width="10" height="10"/><rect x="240" y="130" width="10" height="10"/><rect x="260" y="130" width="10" height="10"/><rect x="310" y="130" width="10" height="10"/><rect x="330" y="130" width="10" height="10"/><rect x="340" y="130" width="10" height="10"/><rect x="350" y="130" width="10" height="10"/><rect x="360" y="130" width="10" height="10"/><rect x="370" y="130" width="10" height="10"/><rect x="380" y="130" width="10" height="10"/><rect x="20" y="140" width="10" height="10"/><rect x="40" y="140" width="10" height="10"/><rect x="50" y="140" width="10" height="10"/><rect x="60" y="140" width="10" height="10"/><rect x="70" y="140" width="10" height="10"/><rect x="80" y="140" width="10" height="10"/><rect x="90" y="140" width="10" height="10"/><rect x="120" y="140" width="10" height="10"/><rect x="130" y="140" width="10" height="10"/><rect x="150" y="140" width="10" height="10"/><rect x="160" y="140" width="10" height="10"/><rect x="170" y="140" width="10" height="10"/><rect x="190" y="140" width="10" height="10"/><rect x="230" y="140" width="10" height="10"/><rect x="250" y="140" width="10" height="10"/><rect x="260" y="140" width="10" height="10"/><rect x="290" y="140" width="10" height="10"/><rect x="300" y="140" width="10" height="10"/><rect x="310" y="140" width="10" height="10"/><rect x="320" y="140" width="10" height="10"/><rect x="330" y="140" width="10" height="10"/><rect x="360" y="140" width="10" height="10"/><rect x="380" y="140" width="10" height="10"/><rect x="20" y="150" width="10" height="10"/><rect x="60" y="150" width="10" height="10"/><rect x="90" y="150" width="10" height="10"/><rect x="100" y="150" width="10" height="10"/><rect x="110" y="150" width="10" height="10"/><rect x="120" y="150" width="10" height="10"/><rect x="130" y="150" width="10" height="10"/><rect x="150" y="150" width="10" height="10"/><rect x="160" y="150" width="10" height="10"/><rect x="180" y="150" width="10" height="10"/><rect x="190" y="150" width="10" height="10"/><rect x="210" y="150" width="10" height="10"/><rect x="250" y="150" width="10" height="10"/><rect x="260" y="150" width="10" height="10"/><rect x="270" y="150" width="10" height="10"/><rect x="280" y="150" width="10" height="10"/><rect x="290" y="150" width="10" height="10"/><rect x="300" y="150" width="10" height="10"/><rect x="310" y="150" width="10" height="10"/><rect x="340" y="150" width="10" height="10"/><rect x="350" y="150" width="10" height="10"/><rect x="60" y="160" width="10" height="10"/><rect x="80" y="160" width="10" height="10"/><rect x="90" y="160" width="10" height="10"/><rect x="110" y="160" width="10" height="10"/><rect x="140" y="160" width="10" height="10"/><rect x="160" y="160" width="10" height="10"/><rect x="170" y="160" width="10" height="10"/><rect x="180" y="160" width="10" height="10"/><rect x="210" y="160" width="10" height="10"/><rect x="230" y="160" width="10" height="10"/><rect x="270" y="160" width="10" height="10"/><rect x="280" y="160" width="10" height="10"/><rect x="290" y="160" width="10" height="10"/><rect x="300" y="160" width="10" height="10"/><rect x="310" y="160" width="10" height="10"/><rect x="320" y="160" width="10" height="10"/><rect x="340" y="160" width="10" height="10"/><rect x="350" y="160" width="10" height="10"/><rect x="360" y="160" width="10" height="10"/><rect x="370" y="160" width="10" height="10"/><rect x="380" y="160" width="10" height="10"/><rect x="30" y="170" width="10" height="10"/><rect x="60" y="170" width="10" height="10"/><rect x="90" y="170" width="10" height="10"/><rect x="100" y="170" width="10" height="10"/><rect x="130" y="170" width="10" height="10"/><rect x="160" y="170" width="10" height="10"/><rect x="170" y="170" width="10" height="10"/><rect x="200" y="170" width="10" height="10"/><rect x="210" y="170" width="10" height="10"/><rect x="220" y="170" width="10" height="10"/><rect x="250" y="170" width="10" height="10"/><rect x="290" y="170" width="10" height="10"/><rect x="320" y="170" width="10" height="10"/><rect x="330" y="170" width="10" height="10"/><rect x="350" y="170" width="10" height="10"/><rect x="360" y="170" width="10" height="10"/><rect x="380" y="170" width="10" height="10"/><rect x="20" y="180" width="10" height="10"/><rect x="30" y="180" width="10" height="10"/><rect x="60" y="180" width="10" height="10"/><rect x="80" y="180" width="10" height="10"/><rect x="90" y="180" width="10" height="10"/><rect x="120" y="180" width="10" height="10"/><rect x="150" y="180" width="10" height="10"/><rect x="160" y="180" width="10" height="10"/><rect x="170" y="180" width="10" height="10"/><rect x="190" y="180" width="10" height="10"/><rect x="200" y="180" width="10" height="10"/><rect x="210" y="180" width="10" height="10"/><rect x="220" y="180" width="10" height="10"/><rect x="240" y="180" width="10" height="10"/><rect x="270" y="180" width="10" height="10"/><rect x="320" y="180" width="10" height="10"/><rect x="360" y="180" width="10" height="10"/><rect x="370" y="180" width="10" height="10"/><rect x="20" y="190" width="10" height="10"/><rect x="30" y="190" width="10" height="10"/><rect x="40" y="190" width="10" height="10"/><rect x="50" y="190" width="10" height="10"/><rect x="100" y="190" width="10" height="10"/><rect x="120" y="190" width="10" height="10"/><rect x="140" y="190" width="10" height="10"/><rect x="150" y="190" width="10" height="10"/><rect x="160" y="190" width="10" height="10"/><rect x="190" y="190" width="10" height="10"/><rect x="200" y="190" width="10" height="10"/><rect x="210" y="190" width="10" height="10"/><rect x="220" y="190" width="10" height="10"/><rect x="230" y="190" width="10" height="10"/><rect x="270" y="190" width="10" height="10"/><rect x="280" y="190" width="10" height="10"/><rect x="290" y="190" width="10" height="10"/><rect x="320" y="190" width="10" height="10"/><rect x="330" y="190" width="10" height="10"/><rect x="350" y="190" width="10" height="10"/><rect x="20" y="200" width="10" height="10"/><rect x="40" y="200" width="10" height="10"/><rect x="50" y="200" width="10" height="10"/><rect x="60" y="200" width="10" height="10"/><rect x="80" y="200" width="10" height="10"/><rect x="90" y="200" width="10" height="10"/><rect x="100" y="200" width="10" height="10"/><rect x="110" y="200" width="10" height="10"/><rect x="150" y="200" width="10" height="10"/><rect x="180" y="200" width="10" height="10"/><rect x="200" y="200" width="10" height="10"/><rect x="210" y="200" width="10" height="10"/><rect x="220" y="200" width="10" height="10"/><rect x="230" y="200" width="10" height="10"/><rect x="240" y="200" width="10" height="10"/><rect x="250" y="200" width="10" height="10"/><rect x="270" y="200" width="10" height="10"/><rect x="280" y="200" width="10" height="10"/><rect x="290" y="200" width="10" height="10"/><rect x="310" y="200" width="10" height="10"/><rect x="320" y="200" width="10" height="10"/><rect x="340" y="200" width="10" height="10"/><rect x="380" y="200" width="10" height="10"/><rect x="30" y="210" width="10" height="10"/><rect x="50" y="210" width="10" height="10"/><rect x="90" y="210" width="10" height="10"/><rect x="110" y="210" width="10" height="10"/><rect x="140" y="210" width="10" height="10"/><rect x="160" y="210" width="10" height="10"/><rect x="170" y="210" width="10" height="10"/><rect x="180" y="210" width="10" height="10"/><rect x="200" y="210" width="10" height="10"/><rect x="240" y="210" width="10" height="10"/><rect x="250" y="210" width="10" height="10"/><rect x="270" y="210" width="10" height="10"/><rect x="280" y="210" width="10" height="10"/><rect x="290" y="210" width="10" height="10"/><rect x="300" y="210" width="10" height="10"/><rect x="310" y="210" width="10" height="10"/><rect x="340" y="210" width="10" height="10"/><rect x="350" y="210" width="10" height="10"/><rect x="380" y="210" width="10" height="10"/><rect x="70" y="220" width="10" height="10"/><rect x="80" y="220" width="10" height="10"/><rect x="90" y="220" width="10" height="10"/><rect x="100" y="220" width="10" height="10"/><rect x="140" y="220" width="10" height="10"/><rect x="230" y="220" width="10" height="10"/><rect x="250" y="220" width="10" height="10"/><rect x="260" y="220" width="10" height="10"/><rect x="280" y="220" width="10" height="10"/><rect x="300" y="220" width="10" height="10"/><rect x="310" y="220" width="10" height="10"/><rect x="320" y="220" width="10" height="10"/><rect x="330" y="220" width="10" height="10"/><rect x="340" y="220" width="10" height="10"/><rect x="350" y="220" width="10" height="10"/><rect x="20" y="230" width="10" height="10"/><rect x="30" y="230" width="10" height="10"/><rect x="40" y="230" width="10" height="10"/><rect x="50" y="230" width="10" height="10"/><rect x="70" y="230" width="10" height="10"/><rect x="90" y="230" width="10" height="10"/><rect x="100" y="230" width="10" height="10"/><rect x="120" y="230" width="10" height="10"/><rect x="140" y="230" width="10" height="10"/><rect x="190" y="230" width="10" height="10"/><rect x="200" y="230" width="10" height="10"/><rect x="250" y="230" width="10" height="10"/><rect x="290" y="230" width="10" height="10"/><rect x="300" y="230" width="10" height="10"/><rect x="340" y="230" width="10" height="10"/><rect x="360" y="230" width="10" height="10"/><rect x="20" y="240" width="10" height="10"/><rect x="60" y="240" width="10" height="10"/><rect x="70" y="240" width="10" height="10"/><rect x="80" y="240" width="10" height="10"/><rect x="120" y="240" width="10" height="10"/><rect x="130" y="240" width="10" height="10"/><rect x="160" y="240" width="10" height="10"/><rect x="170" y="240" width="10" height="10"/><rect x="180" y="240" width="10" height="10"/><rect x="230" y="240" width="10" height="10"/><rect x="240" y="240" width="10" height="10"/><rect x="250" y="240" width="10" height="10"/><rect x="290" y="240" width="10" height="10"/><rect x="300" y="240" width="10" height="10"/><rect x="330" y="240" width="10" height="10"/><rect x="350" y="240" width="10" height="10"/><rect x="380" y="240" width="10" height="10"/><rect x="20" y="250" width="10" height="10"/><rect x="30" y="250" width="10" height="10"/><rect x="50" y="250" width="10" height="10"/><rect x="90" y="250" width="10" height="10"/><rect x="100" y="250" width="10" height="10"/><rect x="120" y="250" width="10" height="10"/><rect x="140" y="250" width="10" height="10"/><rect x="200" y="250" width="10" height="10"/><rect x="210" y="250" width="10" height="10"/><rect x="220" y="250" width="10" height="10"/><rect x="240" y="250" width="10" height="10"/><rect x="250" y="250" width="10" height="10"/><rect x="260" y="250" width="10" height="10"/><rect x="290" y="250" width="10" height="10"/><rect x="330" y="250" width="10" height="10"/><rect x="340" y="250" width="10" height="10"/><rect x="350" y="250" width="10" height="10"/><rect x="360" y="250" width="10" height="10"/><rect x="370" y="250" width="10" height="10"/><rect x="380" y="250" width="10" height="10"/><rect x="20" y="260" width="10" height="10"/><rect x="30" y="260" width="10" height="10"/><rect x="50" y="260" width="10" height="10"/><rect x="60" y="260" width="10" height="10"/><rect x="70" y="260" width="10" height="10"/><rect x="80" y="260" width="10" height="10"/><rect x="90" y="260" width="10" height="10"/><rect x="100" y="260" width="10" height="10"/><rect x="110" y="260" width="10" height="10"/><rect x="130" y="260" width="10" height="10"/><rect x="140" y="260" width="10" height="10"/><rect x="150" y="260" width="10" height="10"/><rect x="170" y="260" width="10" height="10"/><rect x="190" y="260" width="10" height="10"/><rect x="220" y="260" width="10" height="10"/><rect x="290" y="260" width="10" height="10"/><rect x="320" y="260" width="10" height="10"/><rect x="380" y="260" width="10" height="10"/><rect x="20" y="270" width="10" height="10"/><rect x="70" y="270" width="10" height="10"/><rect x="90" y="270" width="10" height="10"/><rect x="100" y="270" width="10" height="10"/><rect x="110" y="270" width="10" height="10"/><rect x="120" y="270" width="10" height="10"/><rect x="130" y="270" width="10" height="10"/><rect x="140" y="270" width="10" height="10"/><rect x="200" y="270" width="10" height="10"/><rect x="220" y="270" width="10" height="10"/><rect x="270" y="270" width="10" height="10"/><rect x="280" y="270" width="10" height="10"/><rect x="300" y="270" width="10" height="10"/><rect x="340" y="270" width="10" height="10"/><rect x="20" y="280" width="10" height="10"/><rect x="30" y="280" width="10" height="10"/><rect x="40" y="280" width="10" height="10"/><rect x="50" y="280" width="10" height="10"/><rect x="80" y="280" width="10" height="10"/><rect x="90" y="280" width="10" height="10"/><rect x="120" y="280" width="10" height="10"/><rect x="130" y="280" width="10" height="10"/><rect x="140" y="280" width="10" height="10"/><rect x="170" y="280" width="10" height="10"/><rect x="210" y="280" width="10" height="10"/><rect x="240" y="280" width="10" height="10"/><rect x="260" y="280" width="10" height="10"/><rect x="270" y="280" width="10" height="10"/><rect x="280" y="280" width="10" height="10"/><rect x="290" y="280" width="10" height="10"/><rect x="300" y="280" width="10" height="10"/><rect x="310" y="280" width="10" height="10"/><rect x="340" y="280" width="10" height="10"/><rect x="360" y="280" width="10" height="10"/><rect x="370" y="280" width="10" height="10"/><rect x="380" y="280" width="10" height="10"/><rect x="20" y="290" width="10" height="10"/><rect x="50" y="290" width="10" height="10"/><rect x="60" y="290" width="10" height="10"/><rect x="110" y="290" width="10" height="10"/><rect x="130" y="290" width="10" height="10"/><rect x="180" y="290" width="10" height="10"/><rect x="200" y="290" width="10" height="10"/><rect x="210" y="290" width="10" height="10"/><rect x="240" y="290" width="10" height="10"/><rect x="250" y="290" width="10" height="10"/><rect x="290" y="290" width="10" height="10"/><rect x="330" y="290" width="10" height="10"/><rect x="350" y="290" width="10" height="10"/><rect x="360" y="290" width="10" height="10"/><rect x="20" y="300" width="10" height="10"/><rect x="40" y="300" width="10" height="10"/><rect x="70" y="300" width="10" height="10"/><rect x="80" y="300" width="10" height="10"/><rect x="100" y="300" width="10" height="10"/><rect x="110" y="300" width="10" height="10"/><rect x="150" y="300" width="10" height="10"/><rect x="170" y="300" width="10" height="10"/><rect x="190" y="300" width="10" height="10"/><rect x="210" y="300" width="10" height="10"/><rect x="220" y="300" width="10" height="10"/><rect x="230" y="300" width="10" height="10"/><rect x="240" y="300" width="10" height="10"/><rect x="260" y="300" width="10" height="10"/><rect x="270" y="300" width="10" height="10"/><rect x="290" y="300" width="10" height="10"/><rect x="300" y="300" width="10" height="10"/><rect x="310" y="300" width="10" height="10"/><rect x="320" y="300" width="10" height="10"/><rect x="330" y="300" width="10" height="10"/><rect x="340" y="300" width="10" height="10"/><rect x="350" y="300" width="10" height="10"/><rect x="360" y="300" width="10" height="10"/><rect x="100" y="310" width="10" height="10"/><rect x="160" y="310" width="10" height="10"/><rect x="190" y="310" width="10" height="10"/><rect x="210" y="310" width="10" height="10"/><rect x="230" y="310" width="10" height="10"/><rect x="240" y="310" width="10" height="10"/><rect x="270" y="310" width="10" height="10"/><rect x="290" y="310" width="10" height="10"/><rect x="300" y="310" width="10" height="10"/><rect x="340" y="310" width="10" height="10"/><rect x="360" y="310" width="10" height="10"/><rect x="380" y="310" width="10" height="10"/><rect x="20" y="320" width="10" height="10"/><rect x="30" y="320" width="10" height="10"/><rect x="40" y="320" width="10" height="10"/><rect x="50" y="320" width="10" height="10"/><rect x="60" y="320" width="10" height="10"/><rect x="70" y="320" width="10" height="10"/><rect x="80" y="320" width="10" height="10"/><rect x="100" y="320" width="10" height="10"/><rect x="140" y="320" width="10" height="10"/><rect x="150" y="320" width="10" height="10"/><rect x="170" y="320" width="10" height="10"/><rect x="180" y="320" width="10" height="10"/><rect x="190" y="320" width="10" height="10"/><rect x="200" y="320" width="10" height="10"/><rect x="210" y="320" width="10" height="10"/><rect x="230" y="320" width="10" height="10"/><rect x="240" y="320" width="10" height="10"/><rect x="250" y="320" width="10" height="10"/><rect x="260" y="320" width="10" height="10"/><rect x="270" y="320" width="10" height="10"/><rect x="280" y="320" width="10" height="10"/><rect x="300" y="320" width="10" height="10"/><rect x="320" y="320" width="10" height="10"/><rect x="340" y="320" width="10" height="10"/><rect x="380" y="320" width="10" height="10"/><rect x="20" y="330" width="10" height="10"/><rect x="80" y="330" width="10" height="10"/><rect x="100" y="330" width="10" height="10"/><rect x="110" y="330" width="10" height="10"/><rect x="120" y="330" width="10" height="10"/><rect x="130" y="330" width="10" height="10"/><rect x="140" y="330" width="10" height="10"/><rect x="160" y="330" width="10" height="10"/><rect x="180" y="330" width="10" height="10"/><rect x="210" y="330" width="10" height="10"/><rect x="220" y="330" width="10" height="10"/><rect x="240" y="330" width="10" height="10"/><rect x="250" y="330" width="10" height="10"/><rect x="270" y="330" width="10" height="10"/><rect x="300" y="330" width="10" height="10"/><rect x="340" y="330" width="10" height="10"/><rect x="370" y="330" width="10" height="10"/><rect x="20" y="340" width="10" height="10"/><rect x="40" y="340" width="10" height="10"/><rect x="50" y="340" width="10" height="10"/><rect x="60" y="340" width="10" height="10"/><rect x="80" y="340" width="10" height="10"/><rect x="100" y="340" width="10" height="10"/><rect x="110" y="340" width="10" height="10"/><rect x="120" y="340" width="10" height="10"/><rect x="150" y="340" width="10" height="10"/><rect x="180" y="340" width="10" height="10"/><rect x="200" y="340" width="10" height="10"/><rect x="250" y="340" width="10" height="10"/><rect x="260" y="340" width="10" height="10"/><rect x="280" y="340" width="10" height="10"/><rect x="290" y="340" width="10" height="10"/><rect x="300" y="340" width="10" height="10"/><rect x="310" y="340" width="10" height="10"/><rect x="320" y="340" width="10" height="10"/><rect x="330" y="340" width="10" height="10"/><rect x="340" y="340" width="10" height="10"/><rect x="370" y="340" width="10" height="10"/><rect x="20" y="350" width="10" height="10"/><rect x="40" y="350" width="10" height="10"/><rect x="50" y="350" width="10" height="10"/><rect x="60" y="350" width="10" height="10"/><rect x="80" y="350" width="10" height="10"/><rect x="100" y="350" width="10" height="10"/><rect x="110" y="350" width="10" height="10"/><rect x="140" y="350" width="10" height="10"/><rect x="190" y="350" width="10" height="10"/><rect x="210" y="350" width="10" height="10"/><rect x="230" y="350" width="10" height="10"/><rect x="240" y="350" width="10" height="10"/><rect x="250" y="350" width="10" height="10"/><rect x="280" y="350" width="10" height="10"/><rect x="300" y="350" width="10" height="10"/><rect x="310" y="350" width="10" height="10"/><rect x="320" y="350" width="10" height="10"/><rect x="350" y="350" width="10" height="10"/><rect x="380" y="350" width="10" height="10"/><rect x="20" y="360" width="10" height="10"/><rect x="40" y="360" width="10" height="10"/><rect x="50" y="360" width="10" height="10"/><rect x="60" y="360" width="10" height="10"/><rect x="80" y="360" width="10" height="10"/><rect x="110" y="360" width="10" height="10"/><rect x="130" y="360" width="10" height="10"/><rect x="160" y="360" width="10" height="10"/><rect x="230" y="360" width="10" height="10"/><rect x="240" y="360" width="10" height="10"/><rect x="250" y="360" width="10" height="10"/><rect x="270" y="360" width="10" height="10"/><rect x="280" y="360" width="10" height="10"/><rect x="340" y="360" width="10" height="10"/><rect x="380" y="360" width="10" height="10"/><rect x="20" y="370" width="10" height="10"/><rect x="80" y="370" width="10" height="10"/><rect x="110" y="370" width="10" height="10"/><rect x="130" y="370" width="10" height="10"/><rect x="170" y="370" width="10" height="10"/><rect x="190" y="370" width="10" height="10"/><rect x="210" y="370" width="10" height="10"/><rect x="220" y="370" width="10" height="10"/><rect x="340" y="370" width="10" height="10"/><rect x="350" y="370" width="10" height="10"/><rect x="360" y="370" width="10" height="10"/><rect x="370" y="370" width="10" height="10"/><rect x="380" y="370" width="10" height="10"/><rect x="20" y="380" width="10" height="10"/><rect x="30" y="380" width="10" height="10"/><rect x="40" y="380" width="10" height="10"/><rect x="50" y="380" width="10" height="10"/><rect x="60" y="380" width="10" height="10"/><rect x="70" y="380" width="10" height="10"/><rect x="80" y="380" width="10" height="10"/><rect x="100" y="380" width="10" height="10"/><rect x="160" y="380" width="10" height="10"/><rect x="180" y="380" width="10" height="10"/><rect x="190" y="380" width="10" height="10"/><rect x="220" y="380" width="10" height="10"/><rect x="230" y="380" width="10" height="10"/><rect x="260" y="380" width="10" height="10"/><rect x="280" y="380" width="10" height="10"/><rect x="300" y="380" width="10" height="10"/><rect x="330" y="380" width="10" height="10"/><rect x="350" y="380" width="10" height="10"/><rect x="380" y="380" width="10" height="10"/></g></svg>