<svg id="UCB_Logo" xmlns="http://www.w3.org/2000/svg" viewBox="0 0 876.28204 283.46458" width="1.85cm" height="0.6cm"><defs><style>.cls-1{fill:#001489;}</style></defs><path class="cls-1" d="M237.63348,71.29442h3.06658v49.91473h-3.06658Z"/><path class="cls-1" d="M251.153,85.55552h2.99429v6.275a14.9465,14.9465,0,0,1-.28549,2.9237h.1427a16.43494,16.43494,0,0,1,15.11765-10.05425c9.27007,0,11.76559,5.49061,11.76559,13.905v22.6042h-2.99519V99.67471c0-6.20348-.78427-12.05107-8.7704-12.05107a15.1169,15.1169,0,0,0-14.40388,11.3382,17.71209,17.71209,0,0,0-.571,4.84832v17.399H251.153Z"/><path class="cls-1" d="M288.17409,114.64869a15.52581,15.52581,0,0,0,11.0527,4.49322c4.35035,0,8.20111-2.28231,8.20111-6.70325,0-9.05588-19.60981-6.489-19.60981-18.11186,0-6.34627,5.34791-9.62686,11.4087-9.62686,7.27325,0,10.553,3.85076,10.553,3.85076l-1.78264,2.42412s-2.9229-3.35118-8.98458-3.35118c-4.064,0-8.05663,1.854-8.05663,6.48907,0,9.27007,19.609,6.48906,19.609,18.32595,0,5.7048-4.84922,9.62615-11.40959,9.62615-8.6277,0-12.90674-5.13381-12.90674-5.13381Z"/><path class="cls-1" d="M316.96608,85.55552h2.996v4.279a18.14931,18.14931,0,0,1-.2141,2.8515h.14279s2.92282-7.98612,12.83526-7.98612c9.55475,0,15.40136,7.63013,15.40136,18.68284,0,11.3373-6.63087,18.682-15.82955,18.682a13.62362,13.62362,0,0,1-12.47846-8.05761h-.14279a15.94083,15.94083,0,0,1,.28549,3.13789v18.32649h-2.996Zm15.33175,33.58639c6.98776,0,12.69255-5.77619,12.69255-15.75913,0-9.627-5.13382-15.75914-12.40706-15.75914-6.56127,0-12.69256,4.635-12.69256,15.83053C319.89076,111.369,324.31072,119.14191,332.29783,119.14191Z"/><path class="cls-1" d="M355.00033,71.29442h3.56528v5.20521h-3.56528Zm.28549,14.2611h2.9951v35.65363h-2.9951Z"/><path class="cls-1" d="M367.4074,85.55552h2.99429v6.77455a14.95951,14.95951,0,0,1-.28549,2.92379h.1427c1.78264-5.4907,5.7762-9.98294,11.40959-9.98294a11.22706,11.22706,0,0,1,2.06813.2132v2.99519a11.62643,11.62643,0,0,0-1.63985-.14279c-5.56209,0-9.056,4.70643-10.62532,9.98294a25.3474,25.3474,0,0,0-1.06976,7.48744v15.40225H367.4074Z"/><path class="cls-1" d="M401.5482,84.69994c9.69745,0,14.54658,7.63013,14.54658,16.25783,0,.78507-.1427,1.92533-.1427,1.92533H387.3576c0,10.33983,6.98865,16.25881,15.26035,16.25881a16.14193,16.14193,0,0,0,11.05271-4.49322l1.63985,2.4964a19.42744,19.42744,0,0,1-12.69256,4.91972c-10.05513,0-18.39735-7.27333-18.39735-18.61064C384.2206,91.4031,392.42091,84.69994,401.5482,84.69994Zm11.40869,15.40216c-.356-8.699-5.562-12.62116-11.48009-12.62116-6.56037,0-12.62116,4.279-13.90511,12.62116Z"/><path class="cls-1" d="M436.8502,84.69994c8.98449,0,12.33745,8.05752,12.33745,8.05752h.1427a14.9443,14.9443,0,0,1-.28549-2.9229V71.29442h2.9943v49.91473h-2.9943V116.7169a11.54773,11.54773,0,0,1,.28549-2.7097h-.1427a13.64431,13.64431,0,0,1-12.90674,8.05761c-9.55556,0-15.40314-7.62933-15.40314-18.682C420.87777,92.04458,427.50963,84.69994,436.8502,84.69994Zm-.42738,34.442c6.56036,0,12.69344-4.635,12.69344-15.83053,0-7.91482-4.065-15.68774-12.408-15.68774-6.98865,0-12.69264,5.77619-12.69264,15.75914C424.01566,113.00884,429.14947,119.14191,436.42282,119.14191Z"/><path class="cls-1" d="M481.48573,71.29442h2.996V89.83456a14.9443,14.9443,0,0,1-.28549,2.9229h.14279a13.64135,13.64135,0,0,1,12.90665-8.05752c9.55387,0,15.40136,7.63013,15.40136,18.68284,0,11.3373-6.63087,18.682-15.97234,18.682-8.98458,0-12.33567-8.05761-12.33567-8.05761h-.14279a15.94083,15.94083,0,0,1,.28549,3.13789v4.06406h-2.996Zm15.33175,47.84749c6.98776,0,12.69256-5.77619,12.69256-15.75913,0-9.627-5.13382-15.75914-12.40707-15.75914-6.56135,0-12.69264,4.635-12.69264,15.83053C484.41033,111.369,488.47349,119.14191,496.81748,119.14191Z"/><path class="cls-1" d="M514.25738,131.62037a7.677,7.677,0,0,0,4.42174,1.71124c3.42248,0,5.562-3.06658,6.98776-6.41767l2.5678-5.91889L513.474,85.55552h3.20839l11.76469,28.45168c.71376,1.71125,1.28474,3.35118,1.28474,3.35118h.1427s.49789-1.63993,1.21167-3.35118l11.76646-28.45168H546.061l-18.326,43.99664c-1.56854,3.70806-4.56453,6.6323-9.056,6.6323a9.66473,9.66473,0,0,1-5.77619-1.99727Z"/><path class="cls-1" d="M568.09328,85.12813h6.34547v3.06569a25.29251,25.29251,0,0,1-.14279,2.6391h.14279s3.06739-6.56037,12.12336-6.56037c9.69657,0,15.82956,7.70064,15.82956,18.89613,0,11.48-6.91637,18.89613-16.32923,18.89613a12.55529,12.55529,0,0,1-11.05271-5.91809h-.1427s.1427,1.28306.1427,3.137v16.18786h-6.91645Zm16.90029,31.01859c5.703,0,10.41033-4.70642,10.41033-12.90673,0-7.84343-4.20765-12.90665-10.19793-12.90665-5.41931,0-10.41033,3.77937-10.41033,12.978C574.79564,109.72905,578.36091,116.14672,584.99357,116.14672Z"/><path class="cls-1" d="M626.77582,98.67635h1.57032v-.64148c0-5.91889-3.353-7.91571-7.91571-7.91571a18.30368,18.30368,0,0,0-10.05522,3.494l-2.85152-5.06242a22.6358,22.6358,0,0,1,13.47772-4.27815c9.12737,0,14.26109,4.991,14.26109,14.11831v22.81829H628.844v-3.42258a27.06367,27.06367,0,0,1,.1427-2.85231h-.1427a12.47967,12.47967,0,0,1-11.5506,7.13055c-6.20446,0-12.26613-3.77946-12.26613-10.9814C605.0273,99.17513,620.71592,98.67635,626.77582,98.67635Zm-7.98524,17.82637c5.84751,0,9.62687-6.13218,9.62687-11.4801v-1.14106h-1.78264c-5.20691,0-14.618.35688-14.618,6.84586C612.01683,113.65121,614.29736,116.50272,618.79058,116.50272Z"/><path class="cls-1" d="M643.31227,91.18892h-4.70554v-5.562h4.91963V75.21658h6.70227V85.62691h8.69909v5.562h-8.69909v16.04462c0,7.20194,5.06242,8.12891,7.70162,8.12891a8.32778,8.32778,0,0,0,1.63985-.1427v6.1321a18.92723,18.92723,0,0,1-2.425.14279c-4.63415,0-13.83282-1.42665-13.83282-13.47683Z"/><path class="cls-1" d="M663.53406,70.86614h6.98776v7.06005h-6.98776Zm.07139,14.262h6.91637v36.081h-6.91637Z"/><path class="cls-1" d="M694.03034,84.27255c10.19793,0,15.61725,7.55794,15.61725,16.89931,0,.92706-.21411,2.99519-.21411,2.99519H683.12042c.35689,7.91482,5.9903,11.90828,12.40707,11.90828a17.206,17.206,0,0,0,10.6976-4.20765l2.85151,5.06332a21.47779,21.47779,0,0,1-13.97561,5.13381c-11.33818,0-19.11111-8.20031-19.11111-18.89613C675.98988,91.68859,683.76281,84.27255,694.03034,84.27255Zm8.55808,14.68929c-.21418-6.20438-4.06494-9.19868-8.70078-9.19868-5.2766,0-9.55386,3.27979-10.55312,9.19868Z"/><path class="cls-1" d="M715.34364,85.12813H722.046V89.906a25.28769,25.28769,0,0,1-.14278,2.63822h.14278a14.68719,14.68719,0,0,1,13.549-8.27162c8.485,0,12.40715,4.635,12.40715,13.83371v23.10289h-6.91645V99.67471c0-5.06322-1.07065-9.05588-6.84684-9.05588a11.8144,11.8144,0,0,0-11.4078,8.84179,17.06806,17.06806,0,0,0-.571,4.84913v16.8994h-6.91645Z"/><path class="cls-1" d="M756.05006,91.18892h-4.70545v-5.562h4.91964V75.21658h6.70405V85.62691h8.699v5.562h-8.699v16.04462c0,7.20194,5.06244,8.12891,7.69974,8.12891a8.33652,8.33652,0,0,0,1.64163-.1427v6.1321a18.96175,18.96175,0,0,1-2.425.14279c-4.63585,0-13.83462-1.42665-13.83462-13.47683Z"/><path class="cls-1" d="M778.14852,111.86768a15.47628,15.47628,0,0,0,10.33894,4.20765c2.9943,0,5.99028-1.56845,5.99028-4.49224,0-6.63177-18.54012-5.27652-18.54012-17.043,0-6.55956,5.84757-10.26754,13.04951-10.26754,7.91393,0,11.6219,3.99266,11.6219,3.99266l-2.78011,5.206a13.2005,13.2005,0,0,0-8.91318-3.20929c-2.996,0-5.91888,1.28386-5.91888,4.42085,0,6.48907,18.54013,5.06332,18.54013,16.9003,0,5.98939-5.1338,10.48172-13.04953,10.48172a19.40267,19.40267,0,0,1-13.69181-5.2766Z"/><path class="cls-1" d="M807.61776,113.8645h7.27332v7.34465h-7.27332Z"/><path class="cls-1" d="M237.63348,147.70885h15.68863c14.83127,0,24.88552,9.12737,24.88552,24.95781,0,15.901-10.05425,24.95692-24.88552,24.95692H237.63348Zm15.18905,47.06233c13.26353,0,22.17671-7.772,22.17671-22.10452,0-14.262-8.91318-22.10541-22.17671-22.10541H240.70006v44.20993Z"/><path class="cls-1" d="M286.36355,161.96994h2.996v6.77456a14.95835,14.95835,0,0,1-.28549,2.92379h.14279c1.78264-5.49061,5.7753-9.98294,11.4087-9.98294a11.20645,11.20645,0,0,1,2.06723.21329v2.9951a11.60111,11.60111,0,0,0-1.63984-.1427c-5.562,0-9.056,4.70634-10.62443,9.98294a25.34461,25.34461,0,0,0-1.069,7.48743v15.40217h-2.996Z"/><path class="cls-1" d="M306.99268,147.70885H310.558v5.20521h-3.56527Zm.28468,14.26109h2.9951v35.65364h-2.9951Z"/><path class="cls-1" d="M314.68555,161.96994h3.20839l10.98131,27.953c.64238,1.71124,1.21166,3.84987,1.21166,3.84987h.14279s.571-2.13863,1.21246-3.84987l10.98132-27.953h3.13788L331.585,197.62358h-2.8524Z"/><path class="cls-1" d="M363.67242,161.11437c9.69745,0,14.54658,7.63013,14.54658,16.25783,0,.78516-.14278,1.92542-.14278,1.92542H349.48183c0,10.33983,6.98864,16.25872,15.26035,16.25872a16.142,16.142,0,0,0,11.0527-4.49314l1.63985,2.49641a19.4276,19.4276,0,0,1-12.69255,4.91963c-10.05523,0-18.39744-7.27334-18.39744-18.61064C346.34474,167.81753,354.54505,161.11437,363.67242,161.11437Zm11.40869,15.40225c-.356-8.69909-5.56209-12.62125-11.48009-12.62125-6.56046,0-12.62125,4.279-13.9051,12.62125Z"/><path class="cls-1" d="M385.19107,161.96994h2.99519v6.275a14.94818,14.94818,0,0,1-.28549,2.92379h.1427a16.43266,16.43266,0,0,1,15.11765-10.05434c9.27008,0,11.76469,5.49061,11.76469,13.9051v22.60411h-2.99429V176.08923c0-6.20358-.78508-12.05107-8.7704-12.05107a15.11789,15.11789,0,0,0-14.40477,11.33819,17.74992,17.74992,0,0,0-.57009,4.84824v17.399h-2.99519Z"/><path class="cls-1" d="M443.8745,147.70885h2.996V166.249a14.94314,14.94314,0,0,1-.28549,2.9229h.14279a13.64141,13.64141,0,0,1,12.90674-8.05752c9.55377,0,15.40136,7.63013,15.40136,18.68284,0,11.33739-6.631,18.682-15.97243,18.682-8.98449,0-12.33567-8.05761-12.33567-8.05761H446.585a15.9424,15.9424,0,0,1,.28549,3.138v4.064h-2.996Zm15.33175,47.84749c6.98776,0,12.69255-5.77619,12.69255-15.75913,0-9.627-5.13372-15.75905-12.40706-15.75905-6.56127,0-12.69256,4.635-12.69256,15.83044C446.79918,187.78342,450.86235,195.55634,459.20625,195.55634Z"/><path class="cls-1" d="M476.64614,208.0348a7.677,7.677,0,0,0,4.42174,1.71124c3.42258,0,5.5621-3.06649,6.98785-6.41767l2.56771-5.91889-14.76067-35.43954h3.20838l11.76469,28.45169c.71377,1.71133,1.28475,3.35118,1.28475,3.35118h.14279s.4979-1.63985,1.21166-3.35118l11.76638-28.45169h3.20839l-18.32594,43.99673c-1.56855,3.708-4.56454,6.63177-9.056,6.63177a9.66584,9.66584,0,0,1-5.7761-1.99673Z"/><path class="cls-1" d="M530.91041,188.2822a15.476,15.476,0,0,0,10.33894,4.20765c2.99421,0,5.99029-1.56854,5.99029-4.49234,0-6.63176-18.54014-5.27651-18.54014-17.043,0-6.55948,5.84749-10.26754,13.04944-10.26754,7.91392,0,11.622,3.99266,11.622,3.99266l-2.78021,5.206a13.20059,13.20059,0,0,0-8.91319-3.20928c-2.996,0-5.91889,1.284-5.91889,4.42094,0,6.48907,18.54015,5.06323,18.54015,16.9002,0,5.9894-5.13383,10.48173-13.04945,10.48173a19.40286,19.40286,0,0,1-13.69189-5.27652Z"/><path class="cls-1" d="M576.00373,160.687c9.056,0,13.54742,5.27652,13.54742,5.27652l-3.27979,4.84913a14.61462,14.61462,0,0,0-9.98383-4.13626c-7.27325,0-12.54986,5.41931-12.54986,12.83535,0,7.34464,5.27661,12.97813,12.764,12.97813a16.34535,16.34535,0,0,0,11.1241-4.84922l2.7819,5.06331a19.76548,19.76548,0,0,1-14.40389,5.7753c-11.33819,0-19.32521-8.05761-19.32521-18.89613C556.67852,168.88729,564.66554,160.687,576.00373,160.687Z"/><path class="cls-1" d="M594.62747,147.28066h6.98776v7.06h-6.98776Zm.0714,14.262h6.91636v36.08093h-6.91636Z"/><path class="cls-1" d="M625.12554,160.687c10.19615,0,15.61545,7.55794,15.61545,16.8994,0,.927-.21409,2.9951-.21409,2.9951H614.21553c.3569,7.91482,5.98859,11.90837,12.40716,11.90837a17.19821,17.19821,0,0,0,10.69582-4.20765l2.8532,5.06322a21.48506,21.48506,0,0,1-13.9773,5.13382c-11.3382,0-19.10942-8.20031-19.10942-18.89613C607.085,168.103,614.85621,160.687,625.12554,160.687Zm8.5563,14.68937c-.21409-6.20446-4.06495-9.19867-8.69909-9.19867-5.27652,0-9.55555,3.2797-10.553,9.19867Z"/><path class="cls-1" d="M646.43707,161.54265h6.70234v4.77773a25.28853,25.28853,0,0,1-.14279,2.6383h.14279a14.68738,14.68738,0,0,1,13.549-8.2717c8.485,0,12.40716,4.635,12.40716,13.83371v23.10289h-6.91646V176.08923c0-5.06331-1.07065-9.056-6.84675-9.056a11.81442,11.81442,0,0,0-11.40789,8.84179,17.07267,17.07267,0,0,0-.571,4.84922v16.89931h-6.91644Z"/><path class="cls-1" d="M703.44669,160.687c9.05587,0,13.54731,5.27652,13.54731,5.27652l-3.27978,4.84913a14.61466,14.61466,0,0,0-9.98384-4.13626c-7.27325,0-12.54976,5.41931-12.54976,12.83535,0,7.34464,5.27651,12.97813,12.764,12.97813a16.34529,16.34529,0,0,0,11.124-4.84922l2.78188,5.06331a19.76513,19.76513,0,0,1-14.40378,5.7753c-11.33821,0-19.32532-8.05761-19.32532-18.89613C684.12137,168.88729,692.10848,160.687,703.44669,160.687Z"/><path class="cls-1" d="M737.32373,160.687c10.19615,0,15.61545,7.55794,15.61545,16.8994,0,.927-.21409,2.9951-.21409,2.9951H726.41372c.35689,7.91482,5.98859,11.90837,12.40716,11.90837a17.19821,17.19821,0,0,0,10.69582-4.20765l2.8532,5.06322a21.485,21.485,0,0,1-13.97729,5.13382c-11.33821,0-19.10943-8.20031-19.10943-18.89613C719.28318,168.103,727.0544,160.687,737.32373,160.687Zm8.5563,14.68937c-.21409-6.20446-4.065-9.19867-8.69909-9.19867-5.27652,0-9.55556,3.2797-10.553,9.19867Z"/><path class="cls-1" d="M758.48561,190.27893h7.27323v7.34465h-7.27323Z"/><polygon class="cls-1" points="124.961 71.294 124.147 71.294 124.147 122.05 122.344 122.05 122.344 137.842 115.803 137.842 115.803 122.05 107.456 122.05 107.456 146.864 124.147 146.864 124.147 197.623 124.962 197.623 124.962 146.864 131.366 146.864 131.366 122.05 124.962 122.05 124.961 71.294"/><path class="cls-1" d="M114.71769,71.2944H61.391v53.32812A63.96166,63.96166,0,0,1,114.71769,71.2944Z"/><path class="cls-1" d="M187.71964,124.623l-.00171-53.32861H134.39029A63.96537,63.96537,0,0,1,187.71964,124.623Z"/><path class="cls-1" d="M61.391,144.29165V197.6227H114.7186A63.96434,63.96434,0,0,1,61.391,144.29165Z"/><path class="cls-1" d="M134.39206,197.6227l53.32758.00086V144.29244A63.96817,63.96817,0,0,1,134.39206,197.6227Z"/><path class="cls-1" d="M165.95379,122.05v-13.9856h-9.02374v38.79932h24.36413V122.05Zm6.993,15.79175h-6.993v-6.7663h6.993Z"/><polygon class="cls-1" points="154.224 137.843 143.396 137.843 143.396 131.076 154.224 131.076 154.224 122.052 134.371 122.052 134.371 146.866 154.224 146.866 154.224 137.843"/></svg>